<svg xmlns="http://www.w3.org/2000/svg" xmlns:xlink="http://www.w3.org/1999/xlink" width="2000" zoomAndPan="magnify" viewBox="0 0 1500 1499.999933" height="2000" preserveAspectRatio="xMidYMid meet" version="1.0"><defs><g/><clipPath id="47addab94a"><rect x="0" width="1272" y="0" height="922"/></clipPath></defs><rect x="-150" width="1800" fill="#ffffff" y="-149.999993" height="1799.99992" fill-opacity="1"/><rect x="-150" width="1800" fill="#ffffff" y="-149.999993" height="1799.99992" fill-opacity="1"/><g transform="matrix(1, 0, 0, 1, 114, 289)"><g clip-path="url(#47addab94a)"><g fill="#000000" fill-opacity="1"><g transform="translate(0.949279, 738.045137)"><g><path d="M 614.09375 -8.890625 C 614.507812 -5.929688 614.1875 -3.285156 613.125 -0.953125 C 612.070312 1.378906 610.703125 3.601562 609.015625 5.71875 C 607.742188 7.40625 606.472656 9.203125 605.203125 11.109375 C 603.929688 13.015625 603.082031 15.453125 602.65625 18.421875 C 600.113281 16.296875 598.3125 15.765625 597.25 16.828125 C 596.195312 17.890625 595.457031 19.265625 595.03125 20.953125 C 594.1875 23.066406 593.34375 24.335938 592.5 24.765625 C 578.53125 32.804688 564.769531 34.816406 551.21875 30.796875 C 537.675781 26.773438 524.765625 22.015625 512.484375 16.515625 C 507.398438 13.972656 502.53125 11.75 497.875 9.84375 C 493.21875 7.9375 488.773438 6.347656 484.546875 5.078125 C 476.492188 -11.429688 466.859375 -26.25 455.640625 -39.375 C 444.421875 -52.5 433.3125 -66.894531 422.3125 -82.5625 C 419.769531 -82.5625 417.863281 -81.609375 416.59375 -79.703125 C 415.320312 -77.796875 414.050781 -75.992188 412.78125 -74.296875 C 411.082031 -71.335938 409.382812 -69.222656 407.6875 -67.953125 C 406 -66.679688 403.25 -68.375 399.4375 -73.03125 C 397.320312 -70.914062 396.160156 -68.90625 395.953125 -67 C 395.742188 -65.09375 395.640625 -63.082031 395.640625 -60.96875 C 395.640625 -59.695312 395.640625 -58.425781 395.640625 -57.15625 C 395.640625 -55.882812 395.425781 -54.398438 395 -52.703125 C 384.414062 -42.972656 371.925781 -32.921875 357.53125 -22.546875 C 343.132812 -12.171875 327.679688 -3.066406 311.171875 4.765625 C 294.660156 12.597656 277.617188 17.46875 260.046875 19.375 C 242.484375 21.28125 225.019531 18.421875 207.65625 10.796875 C 246.601562 1.054688 281.109375 -16.085938 311.171875 -40.640625 C 341.234375 -65.191406 367.269531 -92.921875 389.28125 -123.828125 C 383.78125 -137.378906 376.6875 -150.398438 368 -162.890625 C 359.320312 -175.378906 350.75 -188.289062 342.28125 -201.625 C 333.820312 -214.957031 326.628906 -229.25 320.703125 -244.5 C 318.160156 -243.226562 315.617188 -241.53125 313.078125 -239.40625 C 310.535156 -237.289062 307.992188 -235.175781 305.453125 -233.0625 C 299.523438 -227.976562 293.28125 -223.53125 286.71875 -219.71875 C 280.15625 -215.914062 272.007812 -216.34375 262.28125 -221 C 276.25 -238.78125 288.734375 -258.039062 299.734375 -278.78125 C 310.742188 -299.53125 319.003906 -323.453125 324.515625 -350.546875 C 324.085938 -351.390625 323.023438 -352.867188 321.328125 -354.984375 C 320.054688 -357.109375 318.785156 -359.226562 317.515625 -361.34375 C 316.253906 -363.457031 315.832031 -365.785156 316.25 -368.328125 C 318.789062 -367.898438 320.90625 -367.898438 322.59375 -368.328125 C 324.289062 -368.753906 325.773438 -369.175781 327.046875 -369.59375 C 328.316406 -370.445312 329.375 -370.875 330.21875 -370.875 C 331.070312 -375.53125 332.238281 -380.1875 333.71875 -384.84375 C 335.195312 -389.5 336.570312 -394.15625 337.84375 -398.8125 C 340.8125 -406.851562 343.242188 -414.894531 345.140625 -422.9375 C 347.046875 -430.976562 347.15625 -439.023438 345.46875 -447.078125 C 343.769531 -454.691406 340.273438 -460.507812 334.984375 -464.53125 C 329.691406 -468.550781 324.503906 -472.675781 319.421875 -476.90625 C 314.347656 -481.144531 311.175781 -487.078125 309.90625 -494.703125 C 312.863281 -494.273438 314.976562 -494.585938 316.25 -495.640625 C 317.519531 -496.703125 318.789062 -498.082031 320.0625 -499.78125 C 321.332031 -502.320312 322.601562 -503.804688 323.875 -504.234375 C 336.570312 -499.148438 349.800781 -494.488281 363.5625 -490.25 C 377.320312 -486.019531 388.015625 -478.398438 395.640625 -467.390625 C 399.023438 -456.804688 399.550781 -446.75 397.21875 -437.21875 C 394.894531 -427.695312 391.828125 -417.859375 388.015625 -407.703125 C 386.742188 -403.046875 385.257812 -398.390625 383.5625 -393.734375 C 381.875 -389.078125 380.394531 -384.207031 379.125 -379.125 C 392.25 -377.007812 404.738281 -376.796875 416.59375 -378.484375 C 428.445312 -380.179688 440.300781 -382.085938 452.15625 -384.203125 C 459.769531 -385.898438 467.390625 -387.378906 475.015625 -388.640625 C 482.640625 -389.910156 490.679688 -390.757812 499.140625 -391.1875 C 502.535156 -396.269531 507.828125 -399.019531 515.015625 -399.4375 C 522.210938 -399.863281 530.148438 -398.910156 538.828125 -396.578125 C 547.515625 -394.253906 556.09375 -391.613281 564.5625 -388.65625 C 567.519531 -387.800781 570.375 -386.953125 573.125 -386.109375 C 575.875 -385.265625 578.519531 -384.414062 581.0625 -383.5625 C 582.757812 -379.332031 584.878906 -375.734375 587.421875 -372.765625 C 589.960938 -369.804688 591.441406 -366 591.859375 -361.34375 C 588.472656 -359.644531 584.453125 -358.476562 579.796875 -357.84375 C 575.140625 -357.207031 571.753906 -355.195312 569.640625 -351.8125 C 531.535156 -350.96875 495.546875 -348.851562 461.671875 -345.46875 C 427.804688 -342.082031 397.75 -338.90625 371.5 -335.9375 C 365.570312 -327.894531 360.597656 -319.003906 356.578125 -309.265625 C 352.554688 -299.523438 348.425781 -290 344.1875 -280.6875 C 339.957031 -271.375 334.457031 -263.117188 327.6875 -255.921875 C 344.195312 -244.066406 358.800781 -230.625 371.5 -215.59375 C 384.195312 -200.5625 397.535156 -185.640625 411.515625 -170.828125 C 417.441406 -182.253906 422.734375 -195.375 427.390625 -210.1875 C 432.046875 -225.007812 435.007812 -240.359375 436.28125 -256.234375 C 437.550781 -272.117188 436.28125 -286.9375 432.46875 -300.6875 C 428.65625 -314.445312 421.242188 -325.773438 410.234375 -334.671875 C 425.898438 -338.054688 441.035156 -335.410156 455.640625 -326.734375 C 470.253906 -318.054688 481.582031 -306.519531 489.625 -292.125 C 488.351562 -269.6875 484.753906 -249.363281 478.828125 -231.15625 C 472.898438 -212.945312 466.65625 -196.429688 460.09375 -181.609375 C 453.53125 -166.796875 448.128906 -153.253906 443.890625 -140.984375 C 449.398438 -137.597656 454.269531 -133.148438 458.5 -127.640625 C 462.738281 -122.140625 466.972656 -117.0625 471.203125 -112.40625 C 478.398438 -111.976562 483.90625 -109.117188 487.71875 -103.828125 C 491.53125 -98.535156 496.1875 -94.195312 501.6875 -90.8125 C 510.570312 -85.726562 519.988281 -81.703125 529.9375 -78.734375 C 539.894531 -75.773438 549.210938 -72.070312 557.890625 -67.625 C 566.566406 -63.1875 573.019531 -55.882812 577.25 -45.71875 C 587.84375 -43.601562 595.675781 -38.628906 600.75 -30.796875 C 605.832031 -22.960938 610.28125 -15.660156 614.09375 -8.890625 Z M 317.53125 -410.234375 C 310.75 -407.703125 304.816406 -406.328125 299.734375 -406.109375 C 294.660156 -405.898438 289.367188 -403.46875 283.859375 -398.8125 C 279.628906 -375.101562 275.394531 -351.285156 271.15625 -327.359375 C 266.925781 -303.441406 260.367188 -281.957031 251.484375 -262.90625 C 232.847656 -259.945312 214.109375 -256.5625 195.265625 -252.75 C 176.429688 -248.9375 160.242188 -244.914062 146.703125 -240.6875 C 144.578125 -212.320312 142.664062 -182.15625 140.96875 -150.1875 C 139.28125 -118.226562 136.742188 -89.332031 133.359375 -63.5 C 151.984375 -74.507812 172.300781 -87.421875 194.3125 -102.234375 C 216.332031 -117.054688 235.390625 -133.992188 251.484375 -153.046875 C 257.410156 -152.203125 260.898438 -150.71875 261.953125 -148.59375 C 263.015625 -146.476562 263.546875 -143.941406 263.546875 -140.984375 C 263.117188 -138.867188 263.113281 -136.539062 263.53125 -134 C 263.957031 -131.457031 265.441406 -128.703125 267.984375 -125.734375 C 265.023438 -118.117188 262.164062 -112.40625 259.40625 -108.59375 C 256.65625 -104.78125 254.222656 -98.429688 252.109375 -89.546875 C 233.910156 -75.992188 216.238281 -61.804688 199.09375 -46.984375 C 181.945312 -32.171875 161.726562 -20.53125 138.4375 -12.0625 C 135.476562 -10.789062 133.679688 -8.25 133.046875 -4.4375 C 132.410156 -0.632812 130.820312 2.113281 128.28125 3.8125 C 113.039062 6.351562 99.597656 3.070312 87.953125 -6.03125 C 76.304688 -15.132812 65.40625 -24.976562 55.25 -35.5625 C 52.707031 -38.53125 50.0625 -41.390625 47.3125 -44.140625 C 44.5625 -46.890625 41.703125 -49.535156 38.734375 -52.078125 C 44.242188 -56.304688 50.171875 -58.207031 56.515625 -57.78125 C 62.867188 -57.363281 69.007812 -56.519531 74.9375 -55.25 C 78.320312 -54.40625 81.601562 -53.664062 84.78125 -53.03125 C 87.957031 -52.394531 90.816406 -52.5 93.359375 -53.34375 C 97.160156 -79.59375 99.378906 -109.648438 100.015625 -143.515625 C 100.648438 -177.390625 98.640625 -209.351562 93.984375 -239.40625 C 88.054688 -245.757812 81.914062 -252.003906 75.5625 -258.140625 C 69.21875 -264.285156 64.140625 -271.800781 60.328125 -280.6875 C 60.328125 -281.113281 62.550781 -282.382812 67 -284.5 C 71.445312 -286.613281 74.09375 -288.519531 74.9375 -290.21875 C 78.75 -288.945312 82.453125 -288.3125 86.046875 -288.3125 C 89.648438 -288.3125 93.144531 -288.523438 96.53125 -288.953125 C 101.601562 -288.953125 106.570312 -288.738281 111.4375 -288.3125 C 116.3125 -287.882812 120.867188 -285.765625 125.109375 -281.953125 C 133.578125 -282.378906 143.523438 -283.546875 154.953125 -285.453125 C 166.378906 -287.359375 177.914062 -289.582031 189.5625 -292.125 C 201.207031 -294.664062 211.472656 -297.203125 220.359375 -299.734375 C 220.785156 -301.429688 221.101562 -303.234375 221.3125 -305.140625 C 221.519531 -307.046875 221.835938 -309.054688 222.265625 -311.171875 C 224.804688 -326.410156 227.132812 -342.070312 229.25 -358.15625 C 231.363281 -374.25 232 -391.820312 231.15625 -410.875 C 216.757812 -410.03125 200.773438 -408.226562 183.203125 -405.46875 C 165.640625 -402.71875 149.023438 -398.804688 133.359375 -393.734375 C 131.242188 -393.304688 129.335938 -392.457031 127.640625 -391.1875 C 125.953125 -389.914062 124.257812 -388.644531 122.5625 -387.375 C 119.175781 -384.414062 115.472656 -381.984375 111.453125 -380.078125 C 107.429688 -378.171875 102.242188 -378.695312 95.890625 -381.65625 C 90.804688 -384.195312 85.085938 -388.851562 78.734375 -395.625 C 72.390625 -402.40625 66.460938 -409.816406 60.953125 -417.859375 C 55.453125 -425.898438 51.007812 -432.675781 47.625 -438.1875 C 48.894531 -438.601562 49.53125 -440.503906 49.53125 -443.890625 C 49.53125 -444.316406 49.53125 -444.742188 49.53125 -445.171875 C 57.15625 -449.398438 64.671875 -450.5625 72.078125 -448.65625 C 79.484375 -446.75 86.578125 -444.53125 93.359375 -442 C 95.046875 -441.144531 96.945312 -440.296875 99.0625 -439.453125 C 101.1875 -438.609375 103.09375 -437.972656 104.78125 -437.546875 C 133.988281 -438.816406 160.445312 -442.304688 184.15625 -448.015625 C 207.863281 -453.734375 226.914062 -461.460938 241.3125 -471.203125 C 251.894531 -466.546875 262.476562 -462.097656 273.0625 -457.859375 C 283.65625 -453.628906 293.078125 -448.019531 301.328125 -441.03125 C 309.585938 -434.050781 314.988281 -423.785156 317.53125 -410.234375 Z M 317.53125 -410.234375 "/></g></g></g><g fill="#000000" fill-opacity="1"><g transform="translate(635.998118, 738.045137)"><g><path d="M 614.09375 -145.421875 C 611.550781 -137.378906 607.421875 -131.984375 601.703125 -129.234375 C 595.992188 -126.484375 589.960938 -124.679688 583.609375 -123.828125 C 575.984375 -122.984375 567.9375 -123.300781 559.46875 -124.78125 C 551.007812 -126.269531 542.117188 -127.859375 532.796875 -129.546875 C 525.609375 -130.816406 517.988281 -132.191406 509.9375 -133.671875 C 501.894531 -135.160156 493.640625 -136.113281 485.171875 -136.53125 C 435.210938 -139.5 383.242188 -139.601562 329.265625 -136.84375 C 275.285156 -134.09375 224.378906 -129.753906 176.546875 -123.828125 C 167.648438 -122.554688 159.070312 -120.96875 150.8125 -119.0625 C 142.5625 -117.164062 134.628906 -115.15625 127.015625 -113.03125 C 119.390625 -110.914062 112.1875 -109.007812 105.40625 -107.3125 C 98.632812 -105.625 92.921875 -104.992188 88.265625 -105.421875 C 77.679688 -106.265625 68.472656 -109.648438 60.640625 -115.578125 C 52.816406 -121.503906 45.625 -127.851562 39.0625 -134.625 C 32.5 -141.40625 25.617188 -146.488281 18.421875 -149.875 C 19.265625 -153.6875 20.742188 -155.800781 22.859375 -156.21875 C 24.972656 -156.644531 27.085938 -156.960938 29.203125 -157.171875 C 31.328125 -157.378906 32.8125 -158.753906 33.65625 -161.296875 C 49.320312 -157.066406 64.773438 -155.269531 80.015625 -155.90625 C 95.253906 -156.539062 111.128906 -157.914062 127.640625 -160.03125 C 139.492188 -161.300781 151.769531 -162.570312 164.46875 -163.84375 C 177.175781 -165.113281 190.726562 -165.328125 205.125 -164.484375 C 205.125 -164.484375 201.414062 -166.597656 194 -170.828125 C 186.59375 -175.054688 179.289062 -180.5625 172.09375 -187.34375 C 165.320312 -193.269531 159.289062 -200.039062 154 -207.65625 C 148.707031 -215.28125 144.367188 -223.75 140.984375 -233.0625 C 151.984375 -234.332031 164.363281 -233.0625 178.125 -229.25 C 191.882812 -225.4375 203.421875 -219.296875 212.734375 -210.828125 C 218.660156 -205.328125 223.101562 -198.875 226.0625 -191.46875 C 229.03125 -184.0625 229.25 -175.910156 226.71875 -167.015625 C 240.6875 -167.441406 252.007812 -168.179688 260.6875 -169.234375 C 269.363281 -170.296875 280.265625 -170.828125 293.390625 -170.828125 C 294.234375 -177.179688 294.550781 -183.53125 294.34375 -189.875 C 294.132812 -196.226562 293.816406 -202.789062 293.390625 -209.5625 C 292.960938 -214.644531 292.644531 -220.039062 292.4375 -225.75 C 292.226562 -231.46875 292.125 -237.71875 292.125 -244.5 C 282.8125 -244.070312 273.921875 -243.222656 265.453125 -241.953125 C 256.984375 -240.679688 248.726562 -239.410156 240.6875 -238.140625 C 229.25 -236.023438 218.238281 -234.332031 207.65625 -233.0625 C 197.070312 -231.789062 186.066406 -232.003906 174.640625 -233.703125 C 172.941406 -238.773438 169.972656 -242.6875 165.734375 -245.4375 C 161.503906 -248.195312 157.0625 -250.847656 152.40625 -253.390625 C 146.90625 -256.347656 142.035156 -259.414062 137.796875 -262.59375 C 133.566406 -265.769531 131.453125 -270.53125 131.453125 -276.875 C 147.960938 -276.457031 162.988281 -276.566406 176.53125 -277.203125 C 190.082031 -277.835938 203.847656 -278.578125 217.828125 -279.421875 C 228.410156 -280.265625 239.414062 -280.894531 250.84375 -281.3125 C 262.269531 -281.738281 274.972656 -282.164062 288.953125 -282.59375 C 290.210938 -284.707031 290.738281 -286.820312 290.53125 -288.9375 C 290.320312 -291.0625 290.003906 -293.394531 289.578125 -295.9375 C 289.160156 -298.050781 288.738281 -300.164062 288.3125 -302.28125 C 287.882812 -304.394531 287.882812 -306.9375 288.3125 -309.90625 C 280.6875 -309.0625 271.476562 -308.425781 260.6875 -308 C 249.894531 -307.570312 239.519531 -306.722656 229.5625 -305.453125 C 219.613281 -304.179688 211.890625 -301.429688 206.390625 -297.203125 C 191.566406 -301.859375 179.5 -307.148438 170.1875 -313.078125 C 160.875 -319.003906 154.101562 -329.585938 149.875 -344.828125 C 159.1875 -345.671875 168.707031 -346.09375 178.4375 -346.09375 C 188.175781 -346.09375 198.128906 -345.882812 208.296875 -345.46875 C 220.148438 -345.039062 232.53125 -344.828125 245.4375 -344.828125 C 258.351562 -344.828125 271.585938 -345.675781 285.140625 -347.375 C 289.367188 -357.53125 287.882812 -367.476562 280.6875 -377.21875 C 259.09375 -378.0625 241.945312 -377.316406 229.25 -374.984375 C 216.550781 -372.660156 204.0625 -368.535156 191.78125 -362.609375 C 178.65625 -368.535156 166.585938 -375.625 155.578125 -383.875 C 144.578125 -392.132812 135.476562 -402.191406 128.28125 -414.046875 C 131.664062 -414.472656 135.15625 -414.894531 138.75 -415.3125 C 142.351562 -415.738281 144.15625 -417.4375 144.15625 -420.40625 C 158.550781 -416.164062 171.882812 -413.941406 184.15625 -413.734375 C 196.4375 -413.523438 210.832031 -414.054688 227.34375 -415.328125 C 232 -415.328125 237.078125 -415.429688 242.578125 -415.640625 C 248.085938 -415.847656 253.804688 -416.164062 259.734375 -416.59375 C 259.734375 -416.59375 256.453125 -418.707031 249.890625 -422.9375 C 243.328125 -427.175781 235.707031 -431.941406 227.03125 -437.234375 C 218.351562 -442.523438 210.414062 -446.441406 203.21875 -448.984375 C 205.332031 -456.597656 205.332031 -463.15625 203.21875 -468.65625 C 201.101562 -474.164062 198.5625 -479.460938 195.59375 -484.546875 C 193.894531 -487.503906 192.195312 -490.570312 190.5 -493.75 C 188.8125 -496.925781 187.546875 -500.207031 186.703125 -503.59375 C 232.847656 -506.132812 262.90625 -482.847656 276.875 -433.734375 C 274.757812 -431.617188 273.382812 -428.972656 272.75 -425.796875 C 272.113281 -422.617188 270.738281 -419.550781 268.625 -416.59375 C 283.019531 -417.863281 297.835938 -418.816406 313.078125 -419.453125 C 328.316406 -420.085938 346.734375 -420.613281 368.328125 -421.03125 C 376.796875 -428.226562 383.460938 -436.90625 388.328125 -447.0625 C 393.203125 -457.226562 399.445312 -466.332031 407.0625 -474.375 C 403.675781 -480.300781 399.441406 -485.378906 394.359375 -489.609375 C 389.285156 -493.847656 385.265625 -499.144531 382.296875 -505.5 C 382.722656 -508.039062 384.097656 -509.203125 386.421875 -508.984375 C 388.753906 -508.773438 390.128906 -510.578125 390.546875 -514.390625 C 402.398438 -511.847656 414.148438 -510.148438 425.796875 -509.296875 C 437.441406 -508.453125 447.921875 -505.914062 457.234375 -501.6875 C 466.546875 -497.457031 473.53125 -488.988281 478.1875 -476.28125 C 471.414062 -465.28125 462.207031 -456.179688 450.5625 -448.984375 C 438.925781 -441.785156 428.445312 -433.53125 419.125 -424.21875 C 419.125 -424.21875 422.300781 -424.742188 428.65625 -425.796875 C 435.007812 -426.859375 442.421875 -427.390625 450.890625 -427.390625 C 464.429688 -427.390625 477.445312 -425.0625 489.9375 -420.40625 C 502.425781 -415.75 512.484375 -408.550781 520.109375 -398.8125 C 522.222656 -395.84375 521.691406 -393.300781 518.515625 -391.1875 C 515.335938 -389.070312 512.054688 -388.015625 508.671875 -388.015625 C 492.160156 -385.898438 474.164062 -384.628906 454.6875 -384.203125 C 435.21875 -383.773438 416.59375 -383.5625 398.8125 -383.5625 C 387.375 -383.5625 376.894531 -383.457031 367.375 -383.25 C 357.851562 -383.039062 349.492188 -382.722656 342.296875 -382.296875 C 341.867188 -381.023438 341.757812 -379.539062 341.96875 -377.84375 C 342.1875 -376.15625 342.503906 -374.253906 342.921875 -372.140625 C 343.347656 -369.597656 343.769531 -366.84375 344.1875 -363.875 C 344.613281 -360.914062 344.191406 -357.953125 342.921875 -354.984375 C 350.960938 -352.023438 358.796875 -351.070312 366.421875 -352.125 C 374.046875 -353.1875 381.242188 -354.566406 388.015625 -356.265625 C 391.828125 -357.535156 395.53125 -358.59375 399.125 -359.4375 C 402.726562 -360.28125 406.222656 -360.703125 409.609375 -360.703125 C 418.492188 -361.128906 426.320312 -359.648438 433.09375 -356.265625 C 439.875 -352.878906 446.4375 -349.28125 452.78125 -345.46875 C 456.175781 -343.351562 459.457031 -341.34375 462.625 -339.4375 C 465.800781 -337.53125 469.082031 -335.941406 472.46875 -334.671875 C 470.78125 -323.660156 465.703125 -317.734375 457.234375 -316.890625 C 448.765625 -316.046875 439.660156 -316.257812 429.921875 -317.53125 C 427.378906 -317.945312 424.835938 -318.257812 422.296875 -318.46875 C 419.765625 -318.6875 417.226562 -318.796875 414.6875 -318.796875 C 409.1875 -319.210938 403.785156 -319.101562 398.484375 -318.46875 C 393.191406 -317.84375 387.796875 -317.316406 382.296875 -316.890625 C 375.523438 -316.046875 368.644531 -315.304688 361.65625 -314.671875 C 354.675781 -314.035156 347.375 -314.140625 339.75 -314.984375 C 338.476562 -311.597656 337.945312 -306.941406 338.15625 -301.015625 C 338.375 -295.085938 337.425781 -289.796875 335.3125 -285.140625 C 341.65625 -285.984375 348.210938 -286.40625 354.984375 -286.40625 C 361.765625 -286.40625 368.753906 -286.40625 375.953125 -286.40625 C 389.492188 -285.976562 401.976562 -286.1875 413.40625 -287.03125 C 424.84375 -287.882812 432.253906 -290.851562 435.640625 -295.9375 C 447.921875 -292.96875 459.988281 -289.679688 471.84375 -286.078125 C 483.695312 -282.484375 493.222656 -276.453125 500.421875 -267.984375 C 501.691406 -266.710938 502.007812 -265.335938 501.375 -263.859375 C 500.738281 -262.378906 499.785156 -261.003906 498.515625 -259.734375 C 497.242188 -258.460938 496.078125 -256.976562 495.015625 -255.28125 C 493.960938 -253.59375 493.644531 -251.476562 494.0625 -248.9375 C 494.0625 -248.9375 491.734375 -248.722656 487.078125 -248.296875 C 482.421875 -247.878906 477.34375 -247.878906 471.84375 -248.296875 C 474.800781 -242.367188 478.925781 -237.816406 484.21875 -234.640625 C 489.507812 -231.472656 492.367188 -225.65625 492.796875 -217.1875 C 478.398438 -204.488281 460.828125 -195.066406 440.078125 -188.921875 C 419.335938 -182.785156 400.078125 -181.625 382.296875 -185.4375 C 383.140625 -190.09375 385.570312 -194.320312 389.59375 -198.125 C 393.625 -201.9375 397.753906 -205.539062 401.984375 -208.9375 C 407.484375 -213.164062 412.242188 -217.5 416.265625 -221.9375 C 420.296875 -226.382812 421.882812 -231.363281 421.03125 -236.875 C 420.613281 -241.53125 418.390625 -244.8125 414.359375 -246.71875 C 410.335938 -248.625 405.363281 -249.785156 399.4375 -250.203125 C 394.78125 -250.203125 389.703125 -249.988281 384.203125 -249.5625 C 378.703125 -249.144531 373.195312 -248.515625 367.6875 -247.671875 C 362.1875 -246.816406 356.679688 -246.175781 351.171875 -245.75 C 345.671875 -245.332031 340.804688 -245.125 336.578125 -245.125 C 337.421875 -239.195312 337.734375 -232.738281 337.515625 -225.75 C 337.304688 -218.769531 336.992188 -211.46875 336.578125 -203.84375 C 336.578125 -198.34375 336.46875 -192.835938 336.25 -187.328125 C 336.039062 -181.828125 335.9375 -176.539062 335.9375 -171.46875 C 357.957031 -174 380.503906 -175.050781 403.578125 -174.625 C 426.648438 -174.207031 450.675781 -173.578125 475.65625 -172.734375 C 477.769531 -172.734375 479.25 -172.734375 480.09375 -172.734375 C 486.863281 -180.347656 496.175781 -183.414062 508.03125 -181.9375 C 519.882812 -180.457031 531.953125 -178.234375 544.234375 -175.265625 C 546.347656 -174.847656 548.566406 -174.320312 550.890625 -173.6875 C 553.222656 -173.050781 555.453125 -172.519531 557.578125 -172.09375 C 558.421875 -169.550781 556.515625 -168.070312 551.859375 -167.65625 C 550.585938 -167.65625 549.738281 -167.65625 549.3125 -167.65625 C 551.007812 -164.6875 552.597656 -163.414062 554.078125 -163.84375 C 555.554688 -164.269531 557.144531 -164.90625 558.84375 -165.75 C 561.382812 -167.863281 563.289062 -168.5 564.5625 -167.65625 C 574.289062 -165.957031 582.539062 -162.351562 589.3125 -156.84375 C 596.09375 -151.34375 604.351562 -147.535156 614.09375 -145.421875 Z M 508.671875 -80.015625 C 510.367188 -77.054688 510.789062 -74.410156 509.9375 -72.078125 C 509.09375 -69.742188 508.035156 -67.519531 506.765625 -65.40625 C 493.640625 -65.40625 483.796875 -62.335938 477.234375 -56.203125 C 470.671875 -50.066406 465.695312 -42.335938 462.3125 -33.015625 C 458.925781 -23.703125 456.597656 -13.960938 455.328125 -3.796875 C 454.054688 6.359375 452.253906 15.242188 449.921875 22.859375 C 447.597656 30.484375 443.472656 35.351562 437.546875 37.46875 C 432.046875 39.164062 427.28125 39.585938 423.25 38.734375 C 419.226562 37.890625 415.523438 36.832031 412.140625 35.5625 C 410.023438 34.71875 408.015625 33.976562 406.109375 33.34375 C 404.203125 32.707031 402.191406 32.175781 400.078125 31.75 C 387.796875 30.476562 372.867188 30.265625 355.296875 31.109375 C 337.734375 31.960938 319.632812 33.34375 301 35.25 C 282.375 37.15625 265.226562 39.269531 249.5625 41.59375 C 233.90625 43.925781 222.054688 46.148438 214.015625 48.265625 C 209.359375 48.691406 205.332031 47.523438 201.9375 44.765625 C 198.550781 42.015625 195.164062 38.734375 191.78125 34.921875 C 189.664062 32.804688 187.972656 31.113281 186.703125 29.84375 C 182.046875 25.1875 179.503906 19.15625 179.078125 11.75 C 178.660156 4.34375 178.875 -4.019531 179.71875 -13.34375 C 180.144531 -21.382812 180.359375 -29.953125 180.359375 -39.046875 C 180.359375 -48.148438 178.875 -57.363281 175.90625 -66.6875 C 168.289062 -68.800781 162.578125 -72.503906 158.765625 -77.796875 C 154.953125 -83.085938 150.082031 -87.640625 144.15625 -91.453125 C 148.8125 -98.648438 156.21875 -103.304688 166.375 -105.421875 C 176.539062 -107.535156 188.1875 -109.015625 201.3125 -109.859375 C 220.363281 -111.128906 242.0625 -112.289062 266.40625 -113.34375 C 290.75 -114.40625 314.773438 -115.785156 338.484375 -117.484375 C 362.191406 -119.179688 382.300781 -121.507812 398.8125 -124.46875 C 413.625 -127.4375 428.117188 -126.695312 442.296875 -122.25 C 456.484375 -117.800781 469.398438 -111.660156 481.046875 -103.828125 C 492.691406 -95.992188 501.898438 -88.054688 508.671875 -80.015625 Z M 399.4375 -1.90625 C 399.4375 -6.5625 399.539062 -11.21875 399.75 -15.875 C 399.96875 -20.53125 400.5 -25.398438 401.34375 -30.484375 C 402.195312 -40.222656 402.726562 -49.957031 402.9375 -59.6875 C 403.144531 -69.425781 401.347656 -78.316406 397.546875 -86.359375 C 370.023438 -87.628906 344.09375 -87.097656 319.75 -84.765625 C 295.40625 -82.441406 269.6875 -79.585938 242.59375 -76.203125 C 240.46875 -75.785156 238.238281 -75.46875 235.90625 -75.25 C 233.582031 -75.039062 231.363281 -74.722656 229.25 -74.296875 C 229.25 -71.753906 229.25 -69 229.25 -66.03125 C 229.25 -63.070312 229.25 -59.691406 229.25 -55.890625 C 229.25 -46.992188 229.351562 -37.359375 229.5625 -26.984375 C 229.78125 -16.617188 230.734375 -7.835938 232.421875 -0.640625 C 246.816406 0.628906 261.632812 1.050781 276.875 0.625 C 292.113281 0.207031 307.144531 -0.421875 321.96875 -1.265625 C 335.519531 -2.117188 348.851562 -2.753906 361.96875 -3.171875 C 375.09375 -3.597656 387.582031 -3.175781 399.4375 -1.90625 Z M 399.4375 -1.90625 "/></g></g></g></g></g><g fill="#000000" fill-opacity="1"><g transform="translate(336.799663, 1179.49147)"><g><path d="M 8.0625 -31.3125 L 4.6875 -40.609375 C 6.75 -41.273438 8.546875 -41.820312 10.078125 -42.25 C 11.617188 -42.6875 13.191406 -43.070312 14.796875 -43.40625 C 16.398438 -43.75 18.351562 -44.113281 20.65625 -44.5 C 21.28125 -46.125 21.785156 -47.476562 22.171875 -48.5625 C 22.554688 -49.644531 22.914062 -50.640625 23.25 -51.546875 C 23.59375 -52.460938 23.976562 -53.472656 24.40625 -54.578125 C 24.84375 -55.679688 25.367188 -57.097656 25.984375 -58.828125 L 34.203125 -54.859375 C 33.578125 -53.273438 33.070312 -52.023438 32.6875 -51.109375 C 32.300781 -50.203125 31.953125 -49.351562 31.640625 -48.5625 C 31.328125 -47.769531 30.910156 -46.703125 30.390625 -45.359375 C 31.679688 -45.503906 32.804688 -45.578125 33.765625 -45.578125 C 35.398438 -45.578125 36.960938 -45.179688 38.453125 -44.390625 C 39.941406 -43.597656 41.09375 -42.53125 41.90625 -41.1875 C 42.8125 -39.644531 43.265625 -37.289062 43.265625 -34.125 C 43.265625 -29.851562 42.84375 -25.675781 42 -21.59375 C 41.164062 -17.519531 40.050781 -13.847656 38.65625 -10.578125 C 37.269531 -7.316406 35.695312 -4.722656 33.9375 -2.796875 C 32.1875 -0.878906 30.378906 0.078125 28.515625 0.078125 C 26.210938 0.078125 23.785156 -1.335938 21.234375 -4.171875 C 20.804688 -4.648438 20.398438 -5.15625 20.015625 -5.6875 C 19.628906 -6.21875 19.101562 -6.984375 18.4375 -7.984375 C 18.957031 -8.804688 19.394531 -9.515625 19.75 -10.109375 C 20.113281 -10.710938 20.5 -11.421875 20.90625 -12.234375 C 21.320312 -13.054688 21.84375 -14.140625 22.46875 -15.484375 C 23.425781 -13.992188 24.179688 -12.957031 24.734375 -12.375 C 25.285156 -11.800781 25.828125 -11.515625 26.359375 -11.515625 C 27.023438 -11.515625 27.765625 -12.039062 28.578125 -13.09375 C 29.398438 -14.15625 30.144531 -15.578125 30.8125 -17.359375 C 31.394531 -18.890625 31.898438 -20.585938 32.328125 -22.453125 C 32.753906 -24.328125 33.097656 -26.1875 33.359375 -28.03125 C 33.628906 -29.882812 33.765625 -31.507812 33.765625 -32.90625 C 33.765625 -34.289062 33.390625 -35.390625 32.640625 -36.203125 C 31.898438 -37.023438 30.882812 -37.4375 29.59375 -37.4375 C 28.726562 -37.4375 27.671875 -37.296875 26.421875 -37.015625 L 21.890625 -26.640625 L 17.359375 -16.0625 L 14.609375 -9.640625 L 6.265625 -14.546875 C 7.554688 -16.941406 8.632812 -18.988281 9.5 -20.6875 C 10.363281 -22.394531 11.144531 -23.945312 11.84375 -25.34375 C 12.539062 -26.738281 13.203125 -28.144531 13.828125 -29.5625 C 14.453125 -30.976562 15.144531 -32.570312 15.90625 -34.34375 C 14.664062 -33.957031 13.671875 -33.628906 12.921875 -33.359375 C 12.179688 -33.097656 11.472656 -32.820312 10.796875 -32.53125 C 10.128906 -32.25 9.21875 -31.84375 8.0625 -31.3125 Z M 44.859375 -41.40625 L 52.0625 -45.859375 C 54.457031 -44.085938 56.601562 -42.273438 58.5 -40.421875 C 60.394531 -38.578125 62.300781 -36.382812 64.21875 -33.84375 C 65.707031 -31.914062 66.859375 -30.03125 67.671875 -28.1875 C 68.492188 -26.34375 68.90625 -24.722656 68.90625 -23.328125 C 68.90625 -21.503906 67.859375 -19.765625 65.765625 -18.109375 C 63.679688 -16.453125 60.957031 -15.238281 57.59375 -14.46875 C 56.632812 -16.050781 55.816406 -17.296875 55.140625 -18.203125 C 54.472656 -19.117188 53.585938 -20.203125 52.484375 -21.453125 C 56.179688 -22.515625 58.03125 -23.738281 58.03125 -25.125 C 58.03125 -25.800781 57.617188 -26.832031 56.796875 -28.21875 C 55.984375 -29.613281 54.835938 -31.195312 53.359375 -32.96875 C 52.296875 -34.269531 51.148438 -35.519531 49.921875 -36.71875 C 48.703125 -37.914062 47.015625 -39.476562 44.859375 -41.40625 Z M 44.859375 -41.40625 "/></g></g></g><g fill="#000000" fill-opacity="1"><g transform="translate(408.788007, 1179.49147)"><g><path d="M 7.5625 -50.6875 L 17.5 -50.6875 C 17.59375 -46.46875 17.695312 -42.914062 17.8125 -40.03125 C 17.9375 -37.15625 18.082031 -34.707031 18.25 -32.6875 C 18.414062 -30.664062 18.644531 -28.851562 18.9375 -27.25 C 19.226562 -25.644531 19.585938 -24.023438 20.015625 -22.390625 C 20.347656 -21.191406 20.753906 -19.988281 21.234375 -18.78125 C 21.710938 -17.582031 22.191406 -16.585938 22.671875 -15.796875 C 23.160156 -15.003906 23.523438 -14.609375 23.765625 -14.609375 C 24.335938 -14.609375 24.835938 -15.523438 25.265625 -17.359375 C 25.410156 -18.023438 25.53125 -18.875 25.625 -19.90625 C 25.726562 -20.9375 25.875 -22.675781 26.0625 -25.125 C 27.3125 -24.3125 28.390625 -23.613281 29.296875 -23.03125 C 30.210938 -22.457031 31.113281 -21.953125 32 -21.515625 C 32.894531 -21.085938 33.890625 -20.613281 34.984375 -20.09375 C 34.648438 -14.28125 33.535156 -9.71875 31.640625 -6.40625 C 29.742188 -3.09375 27.332031 -1.4375 24.40625 -1.4375 C 23.0625 -1.4375 21.679688 -1.84375 20.265625 -2.65625 C 18.847656 -3.476562 17.585938 -4.632812 16.484375 -6.125 C 15.234375 -7.800781 14.046875 -10.054688 12.921875 -12.890625 C 11.796875 -15.722656 10.820312 -18.878906 10 -22.359375 C 9.1875 -25.835938 8.585938 -29.398438 8.203125 -33.046875 C 8.054688 -34.203125 7.945312 -35.269531 7.875 -36.25 C 7.8125 -37.238281 7.753906 -38.316406 7.703125 -39.484375 C 7.648438 -40.660156 7.613281 -42.132812 7.59375 -43.90625 C 7.570312 -45.6875 7.5625 -47.945312 7.5625 -50.6875 Z M 41.96875 -44.359375 L 50.609375 -48.3125 C 52.816406 -46.53125 54.675781 -44.859375 56.1875 -43.296875 C 57.707031 -41.742188 59.210938 -39.9375 60.703125 -37.875 C 64.585938 -32.5 66.53125 -28.347656 66.53125 -25.421875 C 66.53125 -22.972656 65.425781 -20.617188 63.21875 -18.359375 C 62.78125 -17.878906 62.25 -17.363281 61.625 -16.8125 C 61.007812 -16.257812 60.148438 -15.578125 59.046875 -14.765625 C 58.078125 -15.523438 57.207031 -16.179688 56.4375 -16.734375 C 55.675781 -17.285156 54.863281 -17.835938 54 -18.390625 C 53.132812 -18.941406 52.03125 -19.601562 50.6875 -20.375 C 51.976562 -21.476562 52.957031 -22.351562 53.625 -23 C 54.300781 -23.644531 54.75 -24.207031 54.96875 -24.6875 C 55.1875 -25.175781 55.296875 -25.679688 55.296875 -26.203125 C 55.296875 -27.210938 54.898438 -28.5 54.109375 -30.0625 C 53.316406 -31.625 52.222656 -33.316406 50.828125 -35.140625 C 49.578125 -36.765625 48.304688 -38.25 47.015625 -39.59375 C 45.722656 -40.9375 44.039062 -42.523438 41.96875 -44.359375 Z M 41.96875 -44.359375 "/></g></g></g><g fill="#000000" fill-opacity="1"><g transform="translate(1002.763531, 1193.590077)"><g><path d="M 29.953125 -37.578125 L 29.8125 -35.359375 C 31.394531 -35.210938 32.710938 -35.113281 33.765625 -35.0625 C 34.828125 -35.007812 36.078125 -34.984375 37.515625 -34.984375 C 38.566406 -34.984375 39.523438 -35.007812 40.390625 -35.0625 C 41.253906 -35.113281 42.144531 -35.160156 43.0625 -35.203125 C 43.101562 -37.890625 43.253906 -40.144531 43.515625 -41.96875 C 43.785156 -43.800781 44.21875 -45.351562 44.8125 -46.625 C 45.414062 -47.894531 46.222656 -49.035156 47.234375 -50.046875 L 54 -45.5 C 53.613281 -44.832031 53.320312 -44.160156 53.125 -43.484375 C 52.9375 -42.816406 52.804688 -41.941406 52.734375 -40.859375 C 52.660156 -39.773438 52.601562 -38.226562 52.5625 -36.21875 C 55.195312 -36.695312 57.488281 -37.210938 59.4375 -37.765625 C 61.382812 -38.316406 63.53125 -39.070312 65.875 -40.03125 L 65.875 -29.59375 C 64.34375 -28.96875 62.601562 -28.453125 60.65625 -28.046875 C 58.71875 -27.640625 56.09375 -27.21875 52.78125 -26.78125 C 52.875 -24.664062 53.078125 -22.742188 53.390625 -21.015625 C 53.703125 -19.296875 54.21875 -17.332031 54.9375 -15.125 L 44.71875 -12.53125 C 44.375 -14.207031 44.046875 -16.28125 43.734375 -18.75 C 43.421875 -21.226562 43.21875 -23.617188 43.125 -25.921875 C 42.21875 -25.867188 41.453125 -25.84375 40.828125 -25.84375 C 40.203125 -25.84375 39.671875 -25.84375 39.234375 -25.84375 C 37.753906 -25.84375 36.207031 -25.878906 34.59375 -25.953125 C 32.988281 -26.023438 31.175781 -26.132812 29.15625 -26.28125 L 29.15625 -26.140625 C 29.0625 -23.929688 28.976562 -22.320312 28.90625 -21.3125 C 28.832031 -20.300781 28.796875 -19.554688 28.796875 -19.078125 C 28.796875 -18.597656 28.796875 -18.023438 28.796875 -17.359375 C 28.796875 -15.722656 28.914062 -14.398438 29.15625 -13.390625 C 29.394531 -12.378906 29.828125 -11.515625 30.453125 -10.796875 C 32.273438 -8.828125 36.285156 -7.84375 42.484375 -7.84375 C 42.867188 -7.84375 43.335938 -7.84375 43.890625 -7.84375 C 44.441406 -7.84375 45.097656 -7.867188 45.859375 -7.921875 L 45.859375 2.15625 C 45.234375 2.207031 44.679688 2.234375 44.203125 2.234375 C 43.722656 2.234375 43.363281 2.234375 43.125 2.234375 C 38.46875 2.234375 34.375 1.71875 30.84375 0.6875 C 27.320312 -0.34375 24.648438 -1.820312 22.828125 -3.75 C 21.523438 -5.09375 20.609375 -6.769531 20.078125 -8.78125 C 19.554688 -10.800781 19.296875 -13.585938 19.296875 -17.140625 C 19.296875 -18.046875 19.296875 -18.832031 19.296875 -19.5 C 19.296875 -20.175781 19.332031 -21.101562 19.40625 -22.28125 C 19.476562 -23.457031 19.5625 -25.242188 19.65625 -27.640625 C 17.0625 -28.171875 14.648438 -28.785156 12.421875 -29.484375 C 10.191406 -30.179688 7.78125 -31.054688 5.1875 -32.109375 L 5.1875 -43.265625 C 7.582031 -41.785156 9.882812 -40.578125 12.09375 -39.640625 C 14.300781 -38.703125 16.988281 -37.800781 20.15625 -36.9375 C 20.300781 -39.625 20.421875 -41.890625 20.515625 -43.734375 C 20.609375 -45.585938 20.71875 -47.398438 20.84375 -49.171875 C 20.96875 -50.953125 21.125 -53.019531 21.3125 -55.375 L 31.53125 -54.078125 C 31.34375 -52.734375 31.195312 -51.640625 31.09375 -50.796875 C 31 -49.953125 30.914062 -49.207031 30.84375 -48.5625 C 30.78125 -47.914062 30.710938 -47.195312 30.640625 -46.40625 C 30.566406 -45.613281 30.484375 -44.566406 30.390625 -43.265625 C 30.285156 -41.679688 30.140625 -39.785156 29.953125 -37.578125 Z M 53.359375 -49.6875 L 57.09375 -53.5625 C 58.53125 -52.65625 59.800781 -51.734375 60.90625 -50.796875 C 62.007812 -49.859375 63.164062 -48.644531 64.375 -47.15625 L 60.484375 -42.703125 C 59.285156 -44.179688 58.203125 -45.390625 57.234375 -46.328125 C 56.273438 -47.265625 54.984375 -48.382812 53.359375 -49.6875 Z M 58.25 -56.15625 L 61.984375 -59.90625 C 64.578125 -58.5625 66.957031 -56.617188 69.125 -54.078125 L 65.296875 -49.6875 C 64.335938 -50.789062 63.535156 -51.664062 62.890625 -52.3125 C 62.242188 -52.957031 61.582031 -53.566406 60.90625 -54.140625 C 60.238281 -54.722656 59.351562 -55.394531 58.25 -56.15625 Z M 58.25 -56.15625 "/></g></g></g><g fill="#000000" fill-opacity="1"><g transform="translate(1074.751875, 1193.590077)"><g><path d="M 34.78125 -59.328125 L 40.890625 -51.40625 C 39.160156 -48.53125 37.679688 -46.082031 36.453125 -44.0625 C 35.234375 -42.050781 34.203125 -40.320312 33.359375 -38.875 C 32.523438 -37.4375 31.796875 -36.128906 31.171875 -34.953125 C 30.546875 -33.773438 29.929688 -32.609375 29.328125 -31.453125 C 28.734375 -30.304688 28.078125 -28.988281 27.359375 -27.5 C 28.554688 -28.414062 29.5625 -29.039062 30.375 -29.375 C 31.195312 -29.707031 32.113281 -29.875 33.125 -29.875 C 34.613281 -29.875 35.679688 -29.523438 36.328125 -28.828125 C 36.972656 -28.140625 37.390625 -26.859375 37.578125 -24.984375 C 37.921875 -22.390625 38.28125 -20.300781 38.65625 -18.71875 C 39.039062 -17.132812 39.546875 -15.695312 40.171875 -14.40625 C 41.566406 -11.375 43.921875 -9.859375 47.234375 -9.859375 C 50.972656 -9.859375 54.019531 -12.210938 56.375 -16.921875 C 57 -18.171875 57.539062 -19.585938 58 -21.171875 C 58.457031 -22.753906 58.972656 -24.960938 59.546875 -27.796875 C 60.554688 -27.023438 61.476562 -26.335938 62.3125 -25.734375 C 63.15625 -25.140625 64.054688 -24.578125 65.015625 -24.046875 C 65.972656 -23.515625 67.101562 -22.890625 68.40625 -22.171875 C 67.820312 -17.472656 66.140625 -13.035156 63.359375 -8.859375 C 61.441406 -5.878906 58.984375 -3.5625 55.984375 -1.90625 C 52.984375 -0.25 49.726562 0.578125 46.21875 0.578125 C 41.90625 0.578125 38.285156 -0.742188 35.359375 -3.390625 C 33.242188 -5.304688 31.414062 -8.445312 29.875 -12.8125 C 29.59375 -13.632812 29.351562 -14.34375 29.15625 -14.9375 C 28.96875 -15.539062 28.679688 -16.65625 28.296875 -18.28125 C 27.859375 -20.0625 27.1875 -20.953125 26.28125 -20.953125 C 25.5625 -20.953125 24.84375 -20.660156 24.125 -20.078125 C 23.40625 -19.503906 22.578125 -18.398438 21.640625 -16.765625 C 20.703125 -15.140625 19.535156 -12.78125 18.140625 -9.6875 C 16.753906 -6.59375 14.976562 -2.546875 12.8125 2.453125 L 4.3125 -4.25 C 5.175781 -6.070312 6.003906 -7.75 6.796875 -9.28125 C 7.585938 -10.820312 8.472656 -12.523438 9.453125 -14.390625 C 10.441406 -16.265625 11.65625 -18.554688 13.09375 -21.265625 C 14.539062 -23.984375 16.367188 -27.382812 18.578125 -31.46875 C 20.585938 -35.113281 22.253906 -38.132812 23.578125 -40.53125 C 24.898438 -42.9375 26.015625 -44.941406 26.921875 -46.546875 C 27.835938 -48.148438 28.664062 -49.578125 29.40625 -50.828125 C 30.15625 -52.078125 30.9375 -53.347656 31.75 -54.640625 C 32.5625 -55.941406 33.570312 -57.503906 34.78125 -59.328125 Z M 34.78125 -59.328125 "/></g></g></g><g fill="#000000" fill-opacity="1"><g transform="translate(296.853524, 424.249969)"><g><path d="M 196.359375 -155.03125 C 196.535156 -153.96875 196.097656 -153.171875 195.046875 -152.640625 C 194.691406 -152.460938 194.425781 -152.285156 194.25 -152.109375 C 192.300781 -149.992188 189.25 -147.875 185.09375 -145.75 C 180.945312 -143.625 176.664062 -141.632812 172.25 -139.78125 C 167.832031 -137.925781 164.390625 -136.117188 161.921875 -134.359375 C 157.503906 -132.765625 152.023438 -129.976562 145.484375 -126 C 138.953125 -122.03125 132.109375 -117.570312 124.953125 -112.625 C 117.796875 -107.675781 111.035156 -102.992188 104.671875 -98.578125 C 98.316406 -94.160156 93.019531 -90.71875 88.78125 -88.25 C 90.1875 -83.832031 92.476562 -79.941406 95.65625 -76.578125 C 98.84375 -73.222656 102.203125 -70.398438 105.734375 -68.109375 C 106.796875 -66.335938 109.222656 -63.640625 113.015625 -60.015625 C 116.816406 -56.398438 121.101562 -52.425781 125.875 -48.09375 C 130.644531 -43.769531 135.0625 -39.53125 139.125 -35.375 C 143.1875 -31.226562 146.015625 -27.648438 147.609375 -24.640625 C 148.316406 -24.992188 149.066406 -25.347656 149.859375 -25.703125 C 150.648438 -26.054688 151.3125 -25.96875 151.84375 -25.4375 C 155.375 -22.4375 158.332031 -18.640625 160.71875 -14.046875 C 163.101562 -9.453125 164.738281 -4.59375 165.625 0.53125 C 164.914062 0.707031 164.25 0.707031 163.625 0.53125 C 163.007812 0.351562 162.441406 0.175781 161.921875 0 C 159.972656 -0.53125 158.820312 -0.351562 158.46875 0.53125 C 158.113281 0.53125 157.582031 0.53125 156.875 0.53125 C 155.820312 0.53125 154.71875 0.53125 153.5625 0.53125 C 152.414062 0.53125 151.398438 0.796875 150.515625 1.328125 C 144.867188 -2.203125 139.039062 -6.265625 133.03125 -10.859375 C 127.019531 -15.453125 121.320312 -20.085938 115.9375 -24.765625 C 110.550781 -29.453125 105.738281 -33.5625 101.5 -37.09375 C 99.90625 -40.28125 97.253906 -43.816406 93.546875 -47.703125 C 89.835938 -51.585938 85.816406 -55.648438 81.484375 -59.890625 C 77.160156 -64.128906 73.226562 -68.28125 69.6875 -72.34375 C 66.15625 -76.40625 63.863281 -80.289062 62.8125 -84 C 65.8125 -85.769531 66.601562 -88.597656 65.1875 -92.484375 C 66.78125 -93.546875 68.503906 -94.828125 70.359375 -96.328125 C 72.210938 -97.828125 73.492188 -99.285156 74.203125 -100.703125 C 75.441406 -102.816406 78.707031 -105.90625 84 -109.96875 C 89.300781 -114.03125 95.75 -118.488281 103.34375 -123.34375 C 110.945312 -128.207031 118.851562 -133.066406 127.0625 -137.921875 C 135.28125 -142.785156 142.96875 -147.070312 150.125 -150.78125 C 157.28125 -154.488281 162.890625 -157.050781 166.953125 -158.46875 C 169.953125 -159.53125 172.734375 -159.972656 175.296875 -159.796875 C 177.859375 -159.617188 180.285156 -159.265625 182.578125 -158.734375 C 183.992188 -158.378906 185.363281 -158.113281 186.6875 -157.9375 C 188.019531 -157.757812 189.300781 -157.757812 190.53125 -157.9375 C 190.882812 -156.695312 191.59375 -155.945312 192.65625 -155.6875 C 193.71875 -155.425781 194.953125 -155.207031 196.359375 -155.03125 Z M 82.15625 -191.859375 C 82.507812 -185.492188 82.242188 -179.484375 81.359375 -173.828125 C 80.472656 -168.179688 79.5 -162.707031 78.4375 -157.40625 C 78.082031 -155.644531 77.726562 -153.832031 77.375 -151.96875 C 77.019531 -150.113281 76.664062 -148.304688 76.3125 -146.546875 C 75.613281 -146.367188 75.085938 -146.054688 74.734375 -145.609375 C 74.378906 -145.171875 73.9375 -144.773438 73.40625 -144.421875 C 73.582031 -140.535156 73.050781 -136.601562 71.8125 -132.625 C 70.570312 -128.65625 68.894531 -124.90625 66.78125 -121.375 C 65.71875 -121.726562 65.097656 -121.550781 64.921875 -120.84375 C 64.566406 -120.3125 64.300781 -120.046875 64.125 -120.046875 C 64.476562 -117.390625 64.082031 -113.984375 62.9375 -109.828125 C 61.789062 -105.679688 60.773438 -102.285156 59.890625 -99.640625 C 59.535156 -98.222656 59.269531 -97.335938 59.09375 -96.984375 C 57.5 -95.046875 56.128906 -92 54.984375 -87.84375 C 53.835938 -83.695312 52.734375 -79.328125 51.671875 -74.734375 C 50.609375 -70.140625 49.632812 -66.207031 48.75 -62.9375 C 47.875 -59.664062 46.992188 -58.03125 46.109375 -58.03125 C 46.285156 -54.320312 45.972656 -50.613281 45.171875 -46.90625 C 44.378906 -43.195312 43.015625 -39.664062 41.078125 -36.3125 C 41.253906 -33.476562 41.164062 -30.957031 40.8125 -28.75 C 40.457031 -26.539062 40.101562 -24.203125 39.75 -21.734375 C 39.394531 -20.671875 39.082031 -19.476562 38.8125 -18.15625 C 38.550781 -16.832031 38.332031 -15.460938 38.15625 -14.046875 C 37.625 -10.867188 36.519531 -7.6875 34.84375 -4.5 C 33.164062 -1.320312 31.222656 0.878906 29.015625 2.109375 C 26.804688 3.347656 24.554688 2.734375 22.265625 0.265625 C 21.378906 1.859375 20.40625 2.125 19.34375 1.0625 C 20.226562 -5.125 20.976562 -10.554688 21.59375 -15.234375 C 22.21875 -19.921875 23.144531 -24.5625 24.375 -29.15625 C 24.550781 -29.851562 24.726562 -30.46875 24.90625 -31 C 25.082031 -31.53125 25.347656 -32.0625 25.703125 -32.59375 C 26.054688 -33.476562 26.320312 -34.316406 26.5 -35.109375 C 26.675781 -35.910156 26.675781 -36.835938 26.5 -37.890625 C 26.320312 -39.484375 26.539062 -41.207031 27.15625 -43.0625 C 27.78125 -44.914062 28.445312 -46.816406 29.15625 -48.765625 C 29.851562 -50.703125 30.507812 -52.597656 31.125 -54.453125 C 31.75 -56.304688 31.882812 -57.941406 31.53125 -59.359375 C 33.300781 -61.128906 34.671875 -63.78125 35.640625 -67.3125 C 36.609375 -70.84375 37.445312 -74.679688 38.15625 -78.828125 C 38.863281 -82.984375 39.523438 -86.914062 40.140625 -90.625 C 40.765625 -94.332031 41.519531 -97.160156 42.40625 -99.109375 C 43.632812 -101.578125 44.78125 -104.929688 45.84375 -109.171875 C 46.90625 -113.421875 48.144531 -117.222656 49.5625 -120.578125 C 49.90625 -121.109375 50.429688 -121.632812 51.140625 -122.15625 C 51.847656 -122.6875 52.289062 -123.394531 52.46875 -124.28125 C 53.175781 -128.519531 54.320312 -133.15625 55.90625 -138.1875 C 57.5 -143.226562 59.710938 -147.957031 62.546875 -152.375 C 63.773438 -158.914062 65.535156 -165.144531 67.828125 -171.0625 C 70.128906 -176.976562 72.957031 -183.734375 76.3125 -191.328125 C 76.84375 -191.328125 77.460938 -191.59375 78.171875 -192.125 C 78.523438 -192.476562 79.007812 -192.742188 79.625 -192.921875 C 80.25 -193.097656 81.09375 -192.742188 82.15625 -191.859375 Z M 82.15625 -191.859375 "/></g></g></g><g fill="#000000" fill-opacity="1"><g transform="translate(506.731143, 424.249969)"><g><path d="M 125.875 -5.828125 C 124.8125 -6.179688 124.101562 -6.003906 123.75 -5.296875 C 123.394531 -4.585938 123.039062 -3.707031 122.6875 -2.65625 C 122.34375 -1.414062 121.859375 -0.3125 121.234375 0.65625 C 120.617188 1.632812 119.601562 1.679688 118.1875 0.796875 C 117.125 -3.085938 116.414062 -7.28125 116.0625 -11.78125 C 115.71875 -16.289062 115.101562 -20.578125 114.21875 -24.640625 C 113.332031 -28.703125 111.566406 -31.882812 108.921875 -34.1875 C 105.378906 -30.300781 101.3125 -26.5 96.71875 -22.78125 C 92.125 -19.070312 89.300781 -15.71875 88.25 -12.71875 C 86.832031 -12.007812 85.375 -11.300781 83.875 -10.59375 C 82.375 -9.894531 80.914062 -9.101562 79.5 -8.21875 C 74.550781 -5.738281 69.46875 -3.4375 64.25 -1.3125 C 59.039062 0.800781 53.703125 1.503906 48.234375 0.796875 C 43.285156 0.0859375 38.113281 -1.191406 32.71875 -3.046875 C 27.332031 -4.898438 23.140625 -7.769531 20.140625 -11.65625 C 19.609375 -12.894531 19.34375 -14 19.34375 -14.96875 C 19.34375 -15.945312 18.632812 -16.785156 17.21875 -17.484375 C 20.050781 -41.160156 26.546875 -61.035156 36.703125 -77.109375 C 46.859375 -93.191406 60.414062 -106.351562 77.375 -116.59375 C 77.90625 -117.476562 78.65625 -118.140625 79.625 -118.578125 C 80.601562 -119.023438 81.269531 -119.78125 81.625 -120.84375 C 84.09375 -119.25 86.875 -118.097656 89.96875 -117.390625 C 93.0625 -116.679688 96.109375 -116.238281 99.109375 -116.0625 C 105.117188 -107.40625 110.109375 -97.644531 114.078125 -86.78125 C 118.054688 -75.914062 121.988281 -65.007812 125.875 -54.0625 C 125.695312 -51.582031 125.785156 -49.0625 126.140625 -46.5 C 126.492188 -43.945312 126.9375 -41.34375 127.46875 -38.6875 C 128.351562 -33.5625 128.96875 -28.21875 129.3125 -22.65625 C 129.664062 -17.09375 128.519531 -11.484375 125.875 -5.828125 Z M 105.46875 -54.859375 C 105.113281 -56.617188 104.316406 -59.882812 103.078125 -64.65625 C 101.847656 -69.425781 100.21875 -74.550781 98.1875 -80.03125 C 96.15625 -85.507812 93.859375 -90.320312 91.296875 -94.46875 C 88.734375 -98.625 86.035156 -100.789062 83.203125 -100.96875 C 75.253906 -95.664062 68.847656 -89.703125 63.984375 -83.078125 C 59.128906 -76.453125 54.976562 -69.164062 51.53125 -61.21875 C 48.09375 -53.269531 44.253906 -44.523438 40.015625 -34.984375 C 40.546875 -34.453125 40.8125 -33.695312 40.8125 -32.71875 C 40.8125 -31.75 40.632812 -30.738281 40.28125 -29.6875 C 40.101562 -28.625 39.96875 -27.5625 39.875 -26.5 C 39.789062 -25.4375 40.015625 -24.640625 40.546875 -24.109375 C 46.554688 -22.523438 52.207031 -22.570312 57.5 -24.25 C 62.800781 -25.925781 67.925781 -27.910156 72.875 -30.203125 C 76.050781 -31.796875 79.140625 -33.164062 82.140625 -34.3125 C 85.148438 -35.46875 88.066406 -36.046875 90.890625 -36.046875 C 91.066406 -37.804688 92.125 -39.921875 94.0625 -42.390625 C 96.007812 -44.867188 98.128906 -47.300781 100.421875 -49.6875 C 102.722656 -52.070312 104.40625 -53.796875 105.46875 -54.859375 Z M 105.46875 -54.859375 "/></g></g></g><g fill="#000000" fill-opacity="1"><g transform="translate(655.12946, 424.249969)"><g><path d="M 75 -28.09375 C 73.582031 -24.738281 72.738281 -21.203125 72.46875 -17.484375 C 72.207031 -13.773438 72.695312 -10.953125 73.9375 -9.015625 C 71.28125 -6.535156 67.785156 -4.8125 63.453125 -3.84375 C 59.128906 -2.875 54.757812 -2.210938 50.34375 -1.859375 C 45.925781 -1.503906 42.039062 -0.796875 38.6875 0.265625 C 36.570312 -0.0859375 34.582031 -0.789062 32.71875 -1.84375 C 30.863281 -2.90625 28.96875 -3.878906 27.03125 -4.765625 C 25.613281 -7.421875 24.816406 -11.175781 24.640625 -16.03125 C 24.460938 -20.882812 24.859375 -26.226562 25.828125 -32.0625 C 26.804688 -37.894531 28.175781 -43.640625 29.9375 -49.296875 C 29.9375 -49.640625 30.507812 -51.664062 31.65625 -55.375 C 32.8125 -59.09375 34.179688 -63.425781 35.765625 -68.375 C 37.359375 -73.320312 38.863281 -77.867188 40.28125 -82.015625 C 41.695312 -86.171875 42.753906 -88.773438 43.453125 -89.828125 C 44.335938 -93.191406 45.53125 -96.019531 47.03125 -98.3125 C 48.539062 -100.613281 50 -102.910156 51.40625 -105.203125 C 52.820312 -107.503906 53.796875 -110.332031 54.328125 -113.6875 C 56.265625 -114.570312 57.410156 -115.585938 57.765625 -116.734375 C 58.117188 -117.878906 58.914062 -119.25 60.15625 -120.84375 C 61.394531 -117.65625 61.789062 -114.296875 61.34375 -110.765625 C 60.90625 -107.234375 60.332031 -103.878906 59.625 -100.703125 C 59.445312 -99.816406 59.3125 -99.019531 59.21875 -98.3125 C 59.132812 -97.601562 59.003906 -96.894531 58.828125 -96.1875 C 59.179688 -95.132812 58.738281 -92.578125 57.5 -88.515625 C 56.269531 -84.453125 54.859375 -79.769531 53.265625 -74.46875 C 51.671875 -69.875 50.125 -65.144531 48.625 -60.28125 C 47.125 -55.425781 45.972656 -50.96875 45.171875 -46.90625 C 44.378906 -42.84375 44.160156 -39.835938 44.515625 -37.890625 C 44.335938 -36.484375 44.070312 -34.453125 43.71875 -31.796875 C 43.363281 -29.148438 43.015625 -27.207031 42.671875 -25.96875 C 44.253906 -24.550781 46.722656 -23.882812 50.078125 -23.96875 C 53.441406 -24.0625 57.066406 -24.460938 60.953125 -25.171875 C 64.835938 -25.878906 68.28125 -26.585938 71.28125 -27.296875 C 71.988281 -27.472656 72.648438 -27.601562 73.265625 -27.6875 C 73.890625 -27.78125 74.46875 -27.914062 75 -28.09375 Z M 94.609375 -154.765625 C 94.253906 -153.523438 93.8125 -152.285156 93.28125 -151.046875 C 92.75 -149.804688 92.484375 -148.21875 92.484375 -146.28125 C 91.773438 -146.28125 90.800781 -145.53125 89.5625 -144.03125 C 88.332031 -142.53125 86.347656 -141.070312 83.609375 -139.65625 C 80.867188 -138.238281 76.582031 -137.53125 70.75 -137.53125 C 68.457031 -138.769531 66.691406 -140.445312 65.453125 -142.5625 C 64.210938 -144.6875 62.890625 -146.632812 61.484375 -148.40625 C 62.367188 -156.175781 64.265625 -162.09375 67.171875 -166.15625 C 70.085938 -170.21875 75.429688 -171.015625 83.203125 -168.546875 C 84.972656 -168.722656 86.648438 -167.878906 88.234375 -166.015625 C 89.828125 -164.160156 91.242188 -162.082031 92.484375 -159.78125 C 93.722656 -157.488281 94.429688 -155.816406 94.609375 -154.765625 Z M 94.609375 -154.765625 "/></g></g></g><g fill="#000000" fill-opacity="1"><g transform="translate(761.128292, 424.249969)"><g><path d="M 117.125 -100.703125 C 119.425781 -96.460938 120.046875 -93.238281 118.984375 -91.03125 C 117.921875 -88.820312 116.597656 -86.832031 115.015625 -85.0625 C 114.304688 -84.175781 113.640625 -83.335938 113.015625 -82.546875 C 112.398438 -81.753906 112.003906 -80.828125 111.828125 -79.765625 C 108.828125 -78.878906 105.644531 -77.195312 102.28125 -74.71875 C 98.925781 -72.25 95.96875 -69.6875 93.40625 -67.03125 C 90.84375 -64.382812 88.945312 -62.269531 87.71875 -60.6875 C 84.1875 -59.445312 83.035156 -58.03125 84.265625 -56.4375 C 85.503906 -54.851562 87.269531 -53.085938 89.5625 -51.140625 C 90.625 -50.253906 91.6875 -49.367188 92.75 -48.484375 C 93.8125 -47.609375 94.609375 -46.726562 95.140625 -45.84375 C 95.671875 -44.070312 95.710938 -42.789062 95.265625 -42 C 94.828125 -41.207031 94.253906 -40.457031 93.546875 -39.75 C 93.191406 -39.394531 92.789062 -38.953125 92.34375 -38.421875 C 91.90625 -37.890625 91.507812 -37.269531 91.15625 -36.5625 C 87.625 -35.863281 84.578125 -35.953125 82.015625 -36.828125 C 79.453125 -37.710938 76.9375 -38.863281 74.46875 -40.28125 C 73.582031 -40.8125 72.609375 -41.34375 71.546875 -41.875 C 70.484375 -42.40625 69.425781 -42.929688 68.375 -43.453125 C 64.664062 -43.273438 62.367188 -42.300781 61.484375 -40.53125 C 60.597656 -38.769531 60.15625 -36.65625 60.15625 -34.1875 C 58.914062 -32.59375 57.632812 -30.78125 56.3125 -28.75 C 54.988281 -26.71875 54.0625 -24.992188 53.53125 -23.578125 C 59.363281 -20.753906 65.851562 -19.207031 73 -18.9375 C 80.15625 -18.675781 87.800781 -18.722656 95.9375 -19.078125 C 98.9375 -19.078125 101.9375 -19.117188 104.9375 -19.203125 C 107.9375 -19.296875 111.03125 -19.34375 114.21875 -19.34375 C 115.976562 -18.457031 116.898438 -17.351562 116.984375 -16.03125 C 117.078125 -14.707031 116.945312 -13.25 116.59375 -11.65625 C 116.414062 -10.769531 116.28125 -9.84375 116.1875 -8.875 C 116.101562 -7.90625 116.238281 -6.976562 116.59375 -6.09375 C 112.351562 -3.445312 106.921875 -1.375 100.296875 0.125 C 93.671875 1.632812 86.601562 2.34375 79.09375 2.25 C 71.59375 2.164062 64.394531 1.0625 57.5 -1.0625 C 50.4375 -3.175781 44.296875 -6.53125 39.078125 -11.125 C 33.867188 -15.71875 30.648438 -21.816406 29.421875 -29.421875 C 31.003906 -31.003906 33.207031 -32.457031 36.03125 -33.78125 C 38.863281 -35.113281 40.367188 -37.191406 40.546875 -40.015625 C 42.140625 -39.660156 44.039062 -40.71875 46.25 -43.1875 C 48.457031 -45.664062 50.3125 -48.453125 51.8125 -51.546875 C 53.3125 -54.640625 53.796875 -56.800781 53.265625 -58.03125 C 52.378906 -60.507812 50.609375 -63.03125 47.953125 -65.59375 C 45.304688 -68.15625 43.28125 -70.40625 41.875 -72.34375 C 43.28125 -73.9375 45.351562 -74.554688 48.09375 -74.203125 C 50.832031 -73.847656 53.703125 -73.09375 56.703125 -71.9375 C 59.710938 -70.789062 62.363281 -69.601562 64.65625 -68.375 C 68.71875 -72.4375 72.601562 -76.71875 76.3125 -81.21875 C 80.03125 -85.726562 82.945312 -91.070312 85.0625 -97.25 C 83.300781 -99.375 80.5625 -100.921875 76.84375 -101.890625 C 73.132812 -102.859375 69.023438 -103.5625 64.515625 -104 C 60.015625 -104.445312 55.820312 -104.9375 51.9375 -105.46875 C 46.988281 -106.175781 41.507812 -106.972656 35.5 -107.859375 C 29.5 -108.742188 24.113281 -109.847656 19.34375 -111.171875 C 14.570312 -112.492188 11.394531 -114.125 9.8125 -116.0625 C 17.582031 -119.601562 26.632812 -121.859375 36.96875 -122.828125 C 47.300781 -123.796875 57.765625 -123.617188 68.359375 -122.296875 C 78.960938 -120.972656 88.59375 -118.5 97.25 -114.875 C 105.90625 -111.25 112.53125 -106.523438 117.125 -100.703125 Z M 117.125 -100.703125 "/></g></g></g><g fill="#000000" fill-opacity="1"><g transform="translate(901.046719, 424.249969)"><g><path d="M 132.765625 -71.28125 C 132.941406 -68.101562 131.789062 -65.5 129.3125 -63.46875 C 126.84375 -61.4375 123.707031 -59.800781 119.90625 -58.5625 C 116.113281 -57.320312 112.1875 -56.4375 108.125 -55.90625 C 104.0625 -55.382812 100.523438 -55.035156 97.515625 -54.859375 C 93.453125 -54.679688 89.785156 -54.941406 86.515625 -55.640625 C 83.253906 -56.347656 80.03125 -57.054688 76.84375 -57.765625 C 75.96875 -57.941406 75.085938 -58.160156 74.203125 -58.421875 C 73.316406 -58.691406 72.429688 -58.914062 71.546875 -59.09375 C 67.660156 -59.976562 63.285156 -60.816406 58.421875 -61.609375 C 53.566406 -62.410156 49.726562 -63.691406 46.90625 -65.453125 C 45.3125 -63.691406 44.25 -61.085938 43.71875 -57.640625 C 43.195312 -54.191406 43.15625 -50.566406 43.59375 -46.765625 C 44.03125 -42.972656 44.910156 -39.617188 46.234375 -36.703125 C 47.566406 -33.785156 49.203125 -32.0625 51.140625 -31.53125 C 53.617188 -31.175781 55.785156 -30.335938 57.640625 -29.015625 C 59.492188 -27.691406 61.300781 -26.234375 63.0625 -24.640625 C 65.363281 -22.703125 67.796875 -20.890625 70.359375 -19.203125 C 72.921875 -17.523438 76.054688 -16.953125 79.765625 -17.484375 C 81.003906 -14.835938 82.109375 -13.46875 83.078125 -13.375 C 84.046875 -13.289062 85.0625 -13.425781 86.125 -13.78125 C 87.007812 -14.132812 87.71875 -14.3125 88.25 -14.3125 C 90.71875 -13.601562 93.628906 -12.097656 96.984375 -9.796875 C 100.347656 -7.503906 102.644531 -4.769531 103.875 -1.59375 C 101.40625 0.53125 98.84375 1.679688 96.1875 1.859375 C 93.539062 2.035156 90.71875 2.035156 87.71875 1.859375 C 85.59375 1.679688 83.378906 1.59375 81.078125 1.59375 C 78.785156 1.59375 76.40625 1.859375 73.9375 2.390625 C 73.226562 0.972656 71.945312 0.132812 70.09375 -0.125 C 68.238281 -0.394531 66.25 -0.882812 64.125 -1.59375 C 62.007812 -2.300781 60.15625 -3.976562 58.5625 -6.625 C 52.382812 -8.039062 46.644531 -11.265625 41.34375 -16.296875 C 36.039062 -21.328125 31.179688 -26.140625 26.765625 -30.734375 C 26.054688 -33.210938 25.300781 -35.597656 24.5 -37.890625 C 23.707031 -40.191406 22.34375 -41.957031 20.40625 -43.1875 C 20.757812 -45.132812 20.800781 -46.640625 20.53125 -47.703125 C 20.269531 -48.765625 19.960938 -49.820312 19.609375 -50.875 C 19.429688 -51.226562 19.253906 -51.625 19.078125 -52.0625 C 18.898438 -52.507812 18.722656 -53.085938 18.546875 -53.796875 C 20.671875 -62.097656 23.941406 -70.222656 28.359375 -78.171875 C 32.773438 -86.117188 38.335938 -93.539062 45.046875 -100.4375 C 47.703125 -103.257812 50.925781 -106.21875 54.71875 -109.3125 C 58.519531 -112.40625 62.492188 -115.1875 66.640625 -117.65625 C 70.796875 -120.132812 74.640625 -121.550781 78.171875 -121.90625 C 79.585938 -122.082031 80.957031 -122.035156 82.28125 -121.765625 C 83.601562 -121.503906 84.972656 -121.195312 86.390625 -120.84375 C 88.160156 -120.3125 89.972656 -119.910156 91.828125 -119.640625 C 93.679688 -119.378906 95.578125 -119.601562 97.515625 -120.3125 C 102.816406 -116.957031 107.765625 -113.6875 112.359375 -110.5 C 116.953125 -107.320312 119.691406 -102.816406 120.578125 -96.984375 C 123.398438 -95.753906 125.296875 -93.503906 126.265625 -90.234375 C 127.242188 -86.960938 128.613281 -84.003906 130.375 -81.359375 C 128.613281 -79.941406 127.953125 -77.992188 128.390625 -75.515625 C 128.835938 -73.046875 130.296875 -71.632812 132.765625 -71.28125 Z M 106 -76.0625 C 106.53125 -78.53125 106.265625 -80.957031 105.203125 -83.34375 C 104.140625 -85.726562 102.90625 -88.066406 101.5 -90.359375 C 100.613281 -91.953125 99.859375 -93.410156 99.234375 -94.734375 C 98.617188 -96.054688 98.222656 -97.335938 98.046875 -98.578125 C 95.578125 -98.929688 93.632812 -99.859375 92.21875 -101.359375 C 90.800781 -102.859375 88.859375 -104.140625 86.390625 -105.203125 C 78.265625 -101.671875 70.625 -97.035156 63.46875 -91.296875 C 56.3125 -85.554688 51.144531 -78.617188 47.96875 -70.484375 C 52.207031 -71.367188 56.753906 -71.8125 61.609375 -71.8125 C 66.472656 -71.8125 71.289062 -71.722656 76.0625 -71.546875 C 81 -71.367188 85.765625 -71.28125 90.359375 -71.28125 C 94.953125 -71.28125 99.019531 -71.8125 102.5625 -72.875 C 102.5625 -74.46875 103.046875 -75.175781 104.015625 -75 C 104.984375 -74.820312 105.644531 -75.175781 106 -76.0625 Z M 106 -76.0625 "/></g></g></g><g fill="#000000" fill-opacity="1"><g transform="translate(1052.095034, 424.249969)"><g><path d="M 125.875 -80.5625 C 126.40625 -78.96875 126.710938 -75.695312 126.796875 -70.75 C 126.890625 -65.800781 126.757812 -60.28125 126.40625 -54.1875 C 126.050781 -48.09375 125.5625 -42.441406 124.9375 -37.234375 C 124.320312 -32.023438 123.488281 -28.359375 122.4375 -26.234375 C 122.4375 -25.523438 122.519531 -24.773438 122.6875 -23.984375 C 122.863281 -23.191406 123.039062 -22.351562 123.21875 -21.46875 C 123.75 -18.988281 124.191406 -16.378906 124.546875 -13.640625 C 124.898438 -10.910156 124.8125 -9.015625 124.28125 -7.953125 C 120.925781 -7.421875 118.144531 -6.535156 115.9375 -5.296875 C 113.726562 -4.054688 111.648438 -3 109.703125 -2.125 C 101.929688 -4.0625 99.019531 -8.390625 100.96875 -15.109375 C 100.789062 -16.335938 100.566406 -18.894531 100.296875 -22.78125 C 100.035156 -26.675781 99.816406 -31.140625 99.640625 -36.171875 C 99.460938 -41.203125 99.414062 -46.144531 99.5 -51 C 99.59375 -55.863281 99.90625 -59.882812 100.4375 -63.0625 C 100.96875 -66.25 101.757812 -67.753906 102.8125 -67.578125 C 102.8125 -69.160156 102.851562 -71.539062 102.9375 -74.71875 C 103.03125 -77.90625 102.945312 -81.394531 102.6875 -85.1875 C 102.425781 -88.988281 101.894531 -92.523438 101.09375 -95.796875 C 100.300781 -99.066406 99.195312 -101.40625 97.78125 -102.8125 C 93.894531 -100.34375 89.832031 -97.429688 85.59375 -94.078125 C 81.351562 -90.722656 79.054688 -86.75 78.703125 -82.15625 C 77.992188 -82.15625 76.664062 -80.914062 74.71875 -78.4375 C 72.78125 -75.96875 70.617188 -73.007812 68.234375 -69.5625 C 65.847656 -66.113281 63.679688 -62.890625 61.734375 -59.890625 C 59.796875 -56.890625 58.5625 -54.859375 58.03125 -53.796875 C 57.144531 -52.023438 56.394531 -50.164062 55.78125 -48.21875 C 55.164062 -46.28125 53.351562 -44.691406 50.34375 -43.453125 C 50.875 -42.398438 50.476562 -40.015625 49.15625 -36.296875 C 47.832031 -32.585938 46.195312 -28.523438 44.25 -24.109375 C 42.3125 -19.691406 40.414062 -15.71875 38.5625 -12.1875 C 36.707031 -8.65625 35.425781 -6.535156 34.71875 -5.828125 C 32.59375 -3.710938 30.070312 -2.078125 27.15625 -0.921875 C 24.25 0.222656 20.757812 0.707031 16.6875 0.53125 C 16.6875 -1.59375 15.9375 -2.960938 14.4375 -3.578125 C 12.9375 -4.191406 12.007812 -5.472656 11.65625 -7.421875 C 13.601562 -8.484375 15.191406 -10.554688 16.421875 -13.640625 C 17.660156 -16.734375 18.632812 -19.957031 19.34375 -23.3125 C 20.050781 -26.675781 20.582031 -29.0625 20.9375 -30.46875 C 24.820312 -44.601562 28.660156 -58.601562 32.453125 -72.46875 C 36.253906 -86.34375 41.867188 -99.109375 49.296875 -110.765625 C 49.816406 -111.472656 50.785156 -111.515625 52.203125 -110.890625 C 53.617188 -110.273438 54.414062 -108.46875 54.59375 -105.46875 C 54.59375 -102.644531 54.191406 -99.550781 53.390625 -96.1875 C 52.597656 -92.832031 51.757812 -89.476562 50.875 -86.125 C 50 -83.125 49.25 -80.253906 48.625 -77.515625 C 48.007812 -74.773438 47.703125 -72.34375 47.703125 -70.21875 C 50.347656 -72.164062 52.6875 -74.816406 54.71875 -78.171875 C 56.75 -81.523438 58.738281 -84.351562 60.6875 -86.65625 C 62.976562 -89.476562 66.15625 -92.960938 70.21875 -97.109375 C 74.28125 -101.265625 78.828125 -105.332031 83.859375 -109.3125 C 88.898438 -113.289062 93.71875 -116.335938 98.3125 -118.453125 C 99.375 -118.984375 101.097656 -119.289062 103.484375 -119.375 C 105.867188 -119.46875 108.34375 -119.425781 110.90625 -119.25 C 113.46875 -119.070312 115.363281 -118.804688 116.59375 -118.453125 C 119.070312 -115.453125 121.101562 -112.359375 122.6875 -109.171875 C 124.28125 -105.992188 124.8125 -102.195312 124.28125 -97.78125 C 124.101562 -95.664062 124.144531 -92.925781 124.40625 -89.5625 C 124.675781 -86.207031 125.164062 -83.207031 125.875 -80.5625 Z M 125.875 -80.5625 "/></g></g></g></svg>