<svg xmlns="http://www.w3.org/2000/svg" xmlns:xlink="http://www.w3.org/1999/xlink" width="2000" zoomAndPan="magnify" viewBox="0 0 1500 1499.999933" height="2000" preserveAspectRatio="xMidYMid meet" version="1.0"><defs><g/><clipPath id="7deeafd70f"><path d="M 750 0 C 335.785156 0 0 335.785156 0 750 C 0 1164.214844 335.785156 1500 750 1500 C 1164.214844 1500 1500 1164.214844 1500 750 C 1500 335.785156 1164.214844 0 750 0 Z M 750 0 " clip-rule="nonzero"/></clipPath><clipPath id="183d2963f0"><path d="M 0 0 L 1500 0 L 1500 1500 L 0 1500 Z M 0 0 " clip-rule="nonzero"/></clipPath><clipPath id="6c8c977b91"><path d="M 750 0 C 335.785156 0 0 335.785156 0 750 C 0 1164.214844 335.785156 1500 750 1500 C 1164.214844 1500 1500 1164.214844 1500 750 C 1500 335.785156 1164.214844 0 750 0 Z M 750 0 " clip-rule="nonzero"/></clipPath><clipPath id="92fb714277"><rect x="0" width="1500" y="0" height="1500"/></clipPath><clipPath id="9d22a1f3e2"><rect x="0" width="1500" y="0" height="1097"/></clipPath></defs><rect x="-150" width="1800" fill="#ffffff" y="-149.999993" height="1799.99992" fill-opacity="1"/><rect x="-150" width="1800" fill="#ffffff" y="-149.999993" height="1799.99992" fill-opacity="1"/><g clip-path="url(#7deeafd70f)"><g transform="matrix(1, 0, 0, 1, 0, 0.000000000000112861)"><g clip-path="url(#92fb714277)"><g clip-path="url(#183d2963f0)"><g clip-path="url(#6c8c977b91)"><rect x="-330" width="2160" fill="#032d66" height="2159.999904" y="-329.999985" fill-opacity="1"/></g></g></g></g></g><g transform="matrix(1, 0, 0, 1, 0, 167)"><g clip-path="url(#9d22a1f3e2)"><g fill="#eb6614" fill-opacity="1"><g transform="translate(-6.302197, 878.716939)"><g><path d="M 731.34375 -10.59375 C 731.84375 -7.0625 731.460938 -3.90625 730.203125 -1.125 C 728.941406 1.644531 727.300781 4.289062 725.28125 6.8125 C 723.769531 8.820312 722.257812 10.960938 720.75 13.234375 C 719.238281 15.503906 718.226562 18.40625 717.71875 21.9375 C 714.695312 19.414062 712.554688 18.785156 711.296875 20.046875 C 710.035156 21.304688 709.15625 22.941406 708.65625 24.953125 C 707.644531 27.472656 706.632812 28.988281 705.625 29.5 C 688.988281 39.070312 672.601562 41.460938 656.46875 36.671875 C 640.332031 31.890625 624.953125 26.21875 610.328125 19.65625 C 604.273438 16.632812 598.476562 13.988281 592.9375 11.71875 C 587.394531 9.445312 582.097656 7.554688 577.046875 6.046875 C 567.472656 -13.609375 556.003906 -31.25 542.640625 -46.875 C 529.273438 -62.507812 516.039062 -79.65625 502.9375 -98.3125 C 499.914062 -98.3125 497.644531 -97.175781 496.125 -94.90625 C 494.613281 -92.644531 493.101562 -90.503906 491.59375 -88.484375 C 489.570312 -84.953125 487.550781 -82.429688 485.53125 -80.921875 C 483.519531 -79.410156 480.242188 -81.425781 475.703125 -86.96875 C 473.179688 -84.445312 471.796875 -82.050781 471.546875 -79.78125 C 471.296875 -77.519531 471.171875 -75.128906 471.171875 -72.609375 C 471.171875 -71.085938 471.171875 -69.570312 471.171875 -68.0625 C 471.171875 -66.550781 470.921875 -64.785156 470.421875 -62.765625 C 457.816406 -51.171875 442.941406 -39.195312 425.796875 -26.84375 C 408.648438 -14.488281 390.242188 -3.648438 370.578125 5.671875 C 350.921875 14.992188 330.628906 20.789062 309.703125 23.0625 C 288.773438 25.332031 267.976562 21.929688 247.3125 12.859375 C 293.695312 1.265625 334.785156 -19.148438 370.578125 -48.390625 C 406.378906 -77.640625 437.390625 -110.671875 463.609375 -147.484375 C 457.054688 -163.609375 448.609375 -179.109375 438.265625 -193.984375 C 427.929688 -208.859375 417.722656 -224.238281 407.640625 -240.125 C 397.554688 -256.007812 388.988281 -273.023438 381.9375 -291.171875 C 378.90625 -289.660156 375.875 -287.644531 372.84375 -285.125 C 369.820312 -282.601562 366.800781 -280.082031 363.78125 -277.5625 C 356.71875 -271.507812 349.28125 -266.210938 341.46875 -261.671875 C 333.65625 -257.140625 323.945312 -257.644531 312.34375 -263.1875 C 328.988281 -284.363281 343.863281 -307.304688 356.96875 -332.015625 C 370.082031 -356.722656 379.914062 -385.207031 386.46875 -417.46875 C 385.96875 -418.476562 384.707031 -420.242188 382.6875 -422.765625 C 381.175781 -425.285156 379.660156 -427.804688 378.140625 -430.328125 C 376.628906 -432.847656 376.128906 -435.625 376.640625 -438.65625 C 379.660156 -438.144531 382.175781 -438.140625 384.1875 -438.640625 C 386.207031 -439.148438 387.976562 -439.660156 389.5 -440.171875 C 391.007812 -441.171875 392.269531 -441.671875 393.28125 -441.671875 C 394.28125 -447.222656 395.660156 -452.769531 397.421875 -458.3125 C 399.191406 -463.863281 400.832031 -469.410156 402.34375 -474.953125 C 405.875 -484.535156 408.773438 -494.113281 411.046875 -503.6875 C 413.316406 -513.269531 413.441406 -522.851562 411.421875 -532.4375 C 409.410156 -541.507812 405.253906 -548.441406 398.953125 -553.234375 C 392.648438 -558.023438 386.472656 -562.941406 380.421875 -567.984375 C 374.367188 -573.023438 370.585938 -580.082031 369.078125 -589.15625 C 372.597656 -588.65625 375.113281 -589.035156 376.625 -590.296875 C 378.144531 -591.554688 379.660156 -593.191406 381.171875 -595.203125 C 382.679688 -598.234375 384.195312 -600 385.71875 -600.5 C 400.84375 -594.445312 416.597656 -588.898438 432.984375 -583.859375 C 449.367188 -578.816406 462.097656 -569.742188 471.171875 -556.640625 C 475.203125 -544.035156 475.832031 -532.054688 473.0625 -520.703125 C 470.289062 -509.359375 466.632812 -497.640625 462.09375 -485.546875 C 460.582031 -479.992188 458.816406 -474.441406 456.796875 -468.890625 C 454.785156 -463.347656 453.023438 -457.554688 451.515625 -451.515625 C 467.140625 -448.992188 482.007812 -448.738281 496.125 -450.75 C 510.25 -452.769531 524.367188 -455.039062 538.484375 -457.5625 C 547.554688 -459.570312 556.628906 -461.332031 565.703125 -462.84375 C 574.785156 -464.363281 584.367188 -465.375 594.453125 -465.875 C 598.484375 -471.925781 604.785156 -475.203125 613.359375 -475.703125 C 621.929688 -476.210938 631.382812 -475.078125 641.71875 -472.296875 C 652.050781 -469.523438 662.257812 -466.378906 672.34375 -462.859375 C 675.875 -461.847656 679.273438 -460.835938 682.546875 -459.828125 C 685.828125 -458.816406 688.984375 -457.804688 692.015625 -456.796875 C 694.023438 -451.753906 696.539062 -447.46875 699.5625 -443.9375 C 702.59375 -440.414062 704.363281 -435.878906 704.875 -430.328125 C 700.832031 -428.316406 696.039062 -426.929688 690.5 -426.171875 C 684.957031 -425.410156 680.921875 -423.015625 678.390625 -418.984375 C 633.015625 -417.972656 590.160156 -415.453125 549.828125 -411.421875 C 509.492188 -407.390625 473.695312 -403.609375 442.4375 -400.078125 C 435.375 -390.503906 429.445312 -379.914062 424.65625 -368.3125 C 419.863281 -356.71875 414.945312 -345.375 409.90625 -334.28125 C 404.863281 -323.1875 398.3125 -313.351562 390.25 -304.78125 C 409.914062 -290.664062 427.3125 -274.660156 442.4375 -256.765625 C 457.5625 -238.867188 473.441406 -221.09375 490.078125 -203.4375 C 497.140625 -217.050781 503.441406 -232.679688 508.984375 -250.328125 C 514.535156 -267.972656 518.066406 -286.25 519.578125 -305.15625 C 521.085938 -324.070312 519.570312 -341.722656 515.03125 -358.109375 C 510.5 -374.492188 501.675781 -387.976562 488.5625 -398.5625 C 507.21875 -402.601562 525.242188 -399.453125 542.640625 -389.109375 C 560.035156 -378.773438 573.523438 -365.035156 583.109375 -347.890625 C 581.597656 -321.171875 577.3125 -296.96875 570.25 -275.28125 C 563.1875 -253.601562 555.75 -233.941406 547.9375 -216.296875 C 540.125 -198.648438 533.695312 -182.515625 528.65625 -167.890625 C 535.207031 -163.859375 541.003906 -158.566406 546.046875 -152.015625 C 551.085938 -145.460938 556.128906 -139.410156 561.171875 -133.859375 C 569.742188 -133.359375 576.296875 -129.957031 580.828125 -123.65625 C 585.367188 -117.351562 590.914062 -112.1875 597.46875 -108.15625 C 608.0625 -102.101562 619.28125 -97.3125 631.125 -93.78125 C 642.976562 -90.25 654.070312 -85.835938 664.40625 -80.546875 C 674.738281 -75.253906 682.425781 -66.554688 687.46875 -54.453125 C 700.070312 -51.929688 709.398438 -46.003906 715.453125 -36.671875 C 721.503906 -27.347656 726.800781 -18.65625 731.34375 -10.59375 Z M 378.140625 -488.5625 C 370.078125 -485.539062 363.019531 -483.90625 356.96875 -483.65625 C 350.914062 -483.40625 344.613281 -480.503906 338.0625 -474.953125 C 333.019531 -446.722656 327.976562 -418.363281 322.9375 -389.875 C 317.894531 -361.382812 310.082031 -335.796875 299.5 -313.109375 C 277.3125 -309.578125 255 -305.539062 232.5625 -301 C 210.125 -296.46875 190.835938 -291.679688 174.703125 -286.640625 C 172.179688 -252.859375 169.910156 -216.929688 167.890625 -178.859375 C 165.878906 -140.796875 162.859375 -106.382812 158.828125 -75.625 C 181.003906 -88.738281 205.203125 -104.117188 231.421875 -121.765625 C 257.640625 -139.410156 280.332031 -159.578125 299.5 -182.265625 C 306.550781 -181.253906 310.707031 -179.488281 311.96875 -176.96875 C 313.226562 -174.445312 313.859375 -171.421875 313.859375 -167.890625 C 313.359375 -165.367188 313.359375 -162.597656 313.859375 -159.578125 C 314.367188 -156.554688 316.132812 -153.28125 319.15625 -149.75 C 315.625 -140.675781 312.21875 -133.867188 308.9375 -129.328125 C 305.664062 -124.785156 302.769531 -117.222656 300.25 -106.640625 C 278.570312 -90.503906 257.519531 -73.613281 237.09375 -55.96875 C 216.675781 -38.320312 192.601562 -24.457031 164.875 -14.375 C 161.34375 -12.851562 159.195312 -9.820312 158.4375 -5.28125 C 157.6875 -0.75 155.796875 2.519531 152.765625 4.53125 C 134.617188 7.5625 118.613281 3.660156 104.75 -7.171875 C 90.882812 -18.015625 77.898438 -29.742188 65.796875 -42.359375 C 62.773438 -45.878906 59.625 -49.28125 56.34375 -52.5625 C 53.0625 -55.84375 49.660156 -58.992188 46.140625 -62.015625 C 52.691406 -67.054688 59.75 -69.320312 67.3125 -68.8125 C 74.875 -68.3125 82.1875 -67.304688 89.25 -65.796875 C 93.28125 -64.785156 97.1875 -63.898438 100.96875 -63.140625 C 104.75 -62.390625 108.148438 -62.519531 111.171875 -63.53125 C 115.710938 -94.789062 118.359375 -130.585938 119.109375 -170.921875 C 119.867188 -211.253906 117.476562 -249.320312 111.9375 -285.125 C 104.875 -292.6875 97.5625 -300.125 90 -307.4375 C 82.4375 -314.75 76.382812 -323.695312 71.84375 -334.28125 C 71.84375 -334.789062 74.488281 -336.304688 79.78125 -338.828125 C 85.082031 -341.347656 88.238281 -343.613281 89.25 -345.625 C 93.78125 -344.113281 98.1875 -343.359375 102.46875 -343.359375 C 106.757812 -343.359375 110.921875 -343.609375 114.953125 -344.109375 C 121.003906 -344.109375 126.925781 -343.859375 132.71875 -343.359375 C 138.519531 -342.859375 143.941406 -340.335938 148.984375 -335.796875 C 159.066406 -336.296875 170.914062 -337.679688 184.53125 -339.953125 C 198.144531 -342.222656 211.882812 -344.867188 225.75 -347.890625 C 239.613281 -350.921875 251.84375 -353.945312 262.4375 -356.96875 C 262.9375 -358.988281 263.3125 -361.128906 263.5625 -363.390625 C 263.820312 -365.660156 264.203125 -368.054688 264.703125 -370.578125 C 267.722656 -388.734375 270.492188 -407.390625 273.015625 -426.546875 C 275.535156 -445.710938 276.296875 -466.640625 275.296875 -489.328125 C 258.148438 -488.316406 239.113281 -486.171875 218.1875 -482.890625 C 197.269531 -479.617188 177.484375 -474.957031 158.828125 -468.90625 C 156.304688 -468.394531 154.035156 -467.382812 152.015625 -465.875 C 149.992188 -464.363281 147.976562 -462.851562 145.96875 -461.34375 C 141.9375 -457.8125 137.523438 -454.910156 132.734375 -452.640625 C 127.941406 -450.367188 121.765625 -451 114.203125 -454.53125 C 108.148438 -457.5625 101.34375 -463.109375 93.78125 -471.171875 C 86.21875 -479.242188 79.15625 -488.066406 72.59375 -497.640625 C 66.039062 -507.222656 60.75 -515.289062 56.71875 -521.84375 C 58.226562 -522.34375 58.984375 -524.613281 58.984375 -528.65625 C 58.984375 -529.15625 58.984375 -529.660156 58.984375 -530.171875 C 68.066406 -535.210938 77.019531 -536.597656 85.84375 -534.328125 C 94.664062 -532.054688 103.109375 -529.40625 111.171875 -526.375 C 113.191406 -525.375 115.460938 -524.367188 117.984375 -523.359375 C 120.503906 -522.347656 122.769531 -521.59375 124.78125 -521.09375 C 159.570312 -522.601562 191.082031 -526.757812 219.3125 -533.5625 C 247.550781 -540.375 270.242188 -549.578125 287.390625 -561.171875 C 299.992188 -555.628906 312.597656 -550.335938 325.203125 -545.296875 C 337.804688 -540.253906 349.023438 -533.570312 358.859375 -525.25 C 368.691406 -516.925781 375.117188 -504.695312 378.140625 -488.5625 Z M 378.140625 -488.5625 "/></g></g></g><g fill="#eb6614" fill-opacity="1"><g transform="translate(749.997764, 878.716939)"><g><path d="M 731.34375 -173.1875 C 728.3125 -163.613281 723.390625 -157.1875 716.578125 -153.90625 C 709.773438 -150.625 702.59375 -148.484375 695.03125 -147.484375 C 685.957031 -146.472656 676.378906 -146.847656 666.296875 -148.609375 C 656.210938 -150.378906 645.625 -152.269531 634.53125 -154.28125 C 625.957031 -155.789062 616.878906 -157.425781 607.296875 -159.1875 C 597.722656 -160.957031 587.894531 -162.097656 577.8125 -162.609375 C 518.3125 -166.128906 456.421875 -166.25 392.140625 -162.96875 C 327.859375 -159.695312 267.226562 -154.535156 210.25 -147.484375 C 199.664062 -145.960938 189.457031 -144.066406 179.625 -141.796875 C 169.789062 -139.535156 160.335938 -137.144531 151.265625 -134.625 C 142.179688 -132.101562 133.601562 -129.832031 125.53125 -127.8125 C 117.46875 -125.789062 110.664062 -125.035156 105.125 -125.546875 C 92.519531 -126.554688 81.550781 -130.585938 72.21875 -137.640625 C 62.894531 -144.703125 54.328125 -152.265625 46.515625 -160.328125 C 38.703125 -168.398438 30.507812 -174.453125 21.9375 -178.484375 C 22.9375 -183.023438 24.695312 -185.546875 27.21875 -186.046875 C 29.75 -186.554688 32.273438 -186.9375 34.796875 -187.1875 C 37.316406 -187.4375 39.078125 -189.070312 40.078125 -192.09375 C 58.734375 -187.050781 77.132812 -184.910156 95.28125 -185.671875 C 113.4375 -186.429688 132.347656 -188.070312 152.015625 -190.59375 C 166.128906 -192.101562 180.75 -193.613281 195.875 -195.125 C 211 -196.632812 227.132812 -196.882812 244.28125 -195.875 C 244.28125 -195.875 239.867188 -198.394531 231.046875 -203.4375 C 222.222656 -208.476562 213.523438 -215.035156 204.953125 -223.109375 C 196.890625 -230.171875 189.707031 -238.238281 183.40625 -247.3125 C 177.101562 -256.382812 171.929688 -266.46875 167.890625 -277.5625 C 181.003906 -279.070312 195.753906 -277.554688 212.140625 -273.015625 C 228.523438 -268.484375 242.265625 -261.175781 253.359375 -251.09375 C 260.421875 -244.539062 265.710938 -236.847656 269.234375 -228.015625 C 272.765625 -219.191406 273.019531 -209.488281 270 -198.90625 C 286.632812 -199.40625 300.117188 -200.285156 310.453125 -201.546875 C 320.796875 -202.804688 333.78125 -203.4375 349.40625 -203.4375 C 350.414062 -211 350.796875 -218.5625 350.546875 -226.125 C 350.296875 -233.695312 349.914062 -241.515625 349.40625 -249.578125 C 348.90625 -255.628906 348.523438 -262.054688 348.265625 -268.859375 C 348.015625 -275.671875 347.890625 -283.109375 347.890625 -291.171875 C 336.804688 -290.671875 326.21875 -289.660156 316.125 -288.140625 C 306.039062 -286.628906 296.210938 -285.117188 286.640625 -283.609375 C 273.023438 -281.085938 259.914062 -279.070312 247.3125 -277.5625 C 234.707031 -276.050781 221.597656 -276.300781 207.984375 -278.3125 C 205.960938 -284.363281 202.429688 -289.023438 197.390625 -292.296875 C 192.347656 -295.578125 187.054688 -298.734375 181.515625 -301.765625 C 174.953125 -305.296875 169.148438 -308.953125 164.109375 -312.734375 C 159.066406 -316.515625 156.546875 -322.1875 156.546875 -329.75 C 176.210938 -329.238281 194.113281 -329.363281 210.25 -330.125 C 226.382812 -330.882812 242.769531 -331.765625 259.40625 -332.765625 C 272.007812 -333.773438 285.117188 -334.53125 298.734375 -335.03125 C 312.347656 -335.539062 327.472656 -336.046875 344.109375 -336.546875 C 345.628906 -339.066406 346.257812 -341.585938 346 -344.109375 C 345.75 -346.628906 345.375 -349.40625 344.875 -352.4375 C 344.363281 -354.957031 343.859375 -357.476562 343.359375 -360 C 342.859375 -362.519531 342.859375 -365.546875 343.359375 -369.078125 C 334.285156 -368.066406 323.316406 -367.304688 310.453125 -366.796875 C 297.597656 -366.296875 285.242188 -365.289062 273.390625 -363.78125 C 261.546875 -362.269531 252.347656 -358.992188 245.796875 -353.953125 C 228.148438 -359.492188 213.78125 -365.789062 202.6875 -372.84375 C 191.59375 -379.90625 183.523438 -392.515625 178.484375 -410.671875 C 189.578125 -411.679688 200.921875 -412.1875 212.515625 -412.1875 C 224.117188 -412.1875 235.96875 -411.929688 248.0625 -411.421875 C 262.175781 -410.921875 276.921875 -410.671875 292.296875 -410.671875 C 307.679688 -410.671875 323.441406 -411.675781 339.578125 -413.6875 C 344.617188 -425.789062 342.851562 -437.640625 334.28125 -449.234375 C 308.570312 -450.242188 288.148438 -449.363281 273.015625 -446.59375 C 257.890625 -443.820312 243.019531 -438.90625 228.40625 -431.84375 C 212.769531 -438.90625 198.394531 -447.347656 185.28125 -457.171875 C 172.175781 -467.003906 161.335938 -478.984375 152.765625 -493.109375 C 156.804688 -493.609375 160.96875 -494.109375 165.25 -494.609375 C 169.53125 -495.117188 171.671875 -497.140625 171.671875 -500.671875 C 188.816406 -495.628906 204.703125 -492.976562 219.328125 -492.71875 C 233.953125 -492.46875 251.09375 -493.101562 270.75 -494.625 C 276.300781 -494.625 282.351562 -494.75 288.90625 -495 C 295.457031 -495.25 302.265625 -495.625 309.328125 -496.125 C 309.328125 -496.125 305.414062 -498.644531 297.59375 -503.6875 C 289.78125 -508.726562 280.707031 -514.398438 270.375 -520.703125 C 260.039062 -527.015625 250.585938 -531.679688 242.015625 -534.703125 C 244.535156 -543.773438 244.535156 -551.585938 242.015625 -558.140625 C 239.492188 -564.703125 236.46875 -571.003906 232.9375 -577.046875 C 230.925781 -580.578125 228.910156 -584.234375 226.890625 -588.015625 C 224.867188 -591.796875 223.351562 -595.707031 222.34375 -599.75 C 277.300781 -602.769531 313.101562 -575.035156 329.75 -516.546875 C 327.226562 -514.023438 325.585938 -510.875 324.828125 -507.09375 C 324.066406 -503.3125 322.425781 -499.65625 319.90625 -496.125 C 337.050781 -497.644531 354.695312 -498.78125 372.84375 -499.53125 C 391 -500.289062 412.9375 -500.921875 438.65625 -501.421875 C 448.738281 -509.992188 456.675781 -520.328125 462.46875 -532.421875 C 468.269531 -544.523438 475.707031 -555.367188 484.78125 -564.953125 C 480.75 -572.015625 475.707031 -578.066406 469.65625 -583.109375 C 463.601562 -588.148438 458.816406 -594.453125 455.296875 -602.015625 C 455.796875 -605.035156 457.429688 -606.421875 460.203125 -606.171875 C 462.972656 -605.921875 464.613281 -608.0625 465.125 -612.59375 C 479.238281 -609.570312 493.226562 -607.554688 507.09375 -606.546875 C 520.957031 -605.535156 533.4375 -602.507812 544.53125 -597.46875 C 555.625 -592.425781 563.941406 -582.34375 569.484375 -567.21875 C 561.421875 -554.113281 550.457031 -543.273438 536.59375 -534.703125 C 522.726562 -526.128906 510.25 -516.296875 499.15625 -505.203125 C 499.15625 -505.203125 502.9375 -505.832031 510.5 -507.09375 C 518.0625 -508.351562 526.882812 -508.984375 536.96875 -508.984375 C 553.101562 -508.984375 568.609375 -506.207031 583.484375 -500.65625 C 598.359375 -495.113281 610.332031 -486.546875 619.40625 -474.953125 C 621.925781 -471.421875 621.296875 -468.394531 617.515625 -465.875 C 613.734375 -463.351562 609.828125 -462.09375 605.796875 -462.09375 C 586.128906 -459.570312 564.695312 -458.054688 541.5 -457.546875 C 518.3125 -457.046875 496.128906 -456.796875 474.953125 -456.796875 C 461.335938 -456.796875 448.859375 -456.671875 437.515625 -456.421875 C 426.171875 -456.171875 416.210938 -455.796875 407.640625 -455.296875 C 407.140625 -453.773438 407.015625 -452.003906 407.265625 -449.984375 C 407.515625 -447.972656 407.894531 -445.707031 408.40625 -443.1875 C 408.90625 -440.164062 409.40625 -436.890625 409.90625 -433.359375 C 410.414062 -429.828125 409.914062 -426.296875 408.40625 -422.765625 C 417.976562 -419.234375 427.300781 -418.097656 436.375 -419.359375 C 445.457031 -420.617188 454.03125 -422.257812 462.09375 -424.28125 C 466.632812 -425.789062 471.046875 -427.050781 475.328125 -428.0625 C 479.617188 -429.070312 483.78125 -429.578125 487.8125 -429.578125 C 498.394531 -430.078125 507.71875 -428.3125 515.78125 -424.28125 C 523.851562 -420.25 531.671875 -415.960938 539.234375 -411.421875 C 543.273438 -408.898438 547.1875 -406.503906 550.96875 -404.234375 C 554.75 -401.972656 558.65625 -400.082031 562.6875 -398.5625 C 560.664062 -385.457031 554.613281 -378.398438 544.53125 -377.390625 C 534.445312 -376.378906 523.609375 -376.628906 512.015625 -378.140625 C 508.984375 -378.648438 505.957031 -379.03125 502.9375 -379.28125 C 499.914062 -379.53125 496.890625 -379.65625 493.859375 -379.65625 C 487.304688 -380.164062 480.878906 -380.039062 474.578125 -379.28125 C 468.273438 -378.519531 461.847656 -377.890625 455.296875 -377.390625 C 447.222656 -376.378906 439.023438 -375.492188 430.703125 -374.734375 C 422.390625 -373.984375 413.695312 -374.113281 404.625 -375.125 C 403.101562 -371.09375 402.46875 -365.546875 402.71875 -358.484375 C 402.976562 -351.421875 401.847656 -345.117188 399.328125 -339.578125 C 406.890625 -340.585938 414.703125 -341.09375 422.765625 -341.09375 C 430.835938 -341.09375 439.160156 -341.09375 447.734375 -341.09375 C 463.859375 -340.582031 478.726562 -340.832031 492.34375 -341.84375 C 505.957031 -342.851562 514.78125 -346.382812 518.8125 -352.4375 C 533.4375 -348.90625 547.804688 -344.992188 561.921875 -340.703125 C 576.046875 -336.421875 587.394531 -329.238281 595.96875 -319.15625 C 597.476562 -317.644531 597.851562 -316.003906 597.09375 -314.234375 C 596.34375 -312.472656 595.207031 -310.835938 593.6875 -309.328125 C 592.175781 -307.816406 590.789062 -306.050781 589.53125 -304.03125 C 588.269531 -302.007812 587.894531 -299.488281 588.40625 -296.46875 C 588.40625 -296.46875 585.628906 -296.210938 580.078125 -295.703125 C 574.535156 -295.203125 568.484375 -295.207031 561.921875 -295.71875 C 565.453125 -288.65625 570.367188 -283.234375 576.671875 -279.453125 C 582.972656 -275.671875 586.378906 -268.738281 586.890625 -258.65625 C 569.742188 -243.53125 548.816406 -232.3125 524.109375 -225 C 499.410156 -217.6875 476.472656 -216.300781 455.296875 -220.84375 C 456.296875 -226.382812 459.191406 -231.421875 463.984375 -235.953125 C 468.773438 -240.492188 473.691406 -244.785156 478.734375 -248.828125 C 485.285156 -253.867188 490.957031 -259.035156 495.75 -264.328125 C 500.539062 -269.617188 502.429688 -275.539062 501.421875 -282.09375 C 500.921875 -287.644531 498.273438 -291.550781 493.484375 -293.8125 C 488.691406 -296.082031 482.765625 -297.472656 475.703125 -297.984375 C 470.160156 -297.984375 464.113281 -297.726562 457.5625 -297.21875 C 451.007812 -296.71875 444.453125 -295.960938 437.890625 -294.953125 C 431.335938 -293.941406 424.785156 -293.1875 418.234375 -292.6875 C 411.679688 -292.1875 405.882812 -291.9375 400.84375 -291.9375 C 401.84375 -284.875 402.21875 -277.179688 401.96875 -268.859375 C 401.71875 -260.546875 401.34375 -251.847656 400.84375 -242.765625 C 400.84375 -236.210938 400.710938 -229.660156 400.453125 -223.109375 C 400.203125 -216.554688 400.078125 -210.253906 400.078125 -204.203125 C 426.296875 -207.222656 453.144531 -208.476562 480.625 -207.96875 C 508.101562 -207.46875 536.71875 -206.71875 566.46875 -205.71875 C 568.988281 -205.71875 570.753906 -205.71875 571.765625 -205.71875 C 579.828125 -214.789062 590.914062 -218.441406 605.03125 -216.671875 C 619.15625 -214.910156 633.523438 -212.265625 648.140625 -208.734375 C 650.660156 -208.234375 653.304688 -207.601562 656.078125 -206.84375 C 658.859375 -206.09375 661.507812 -205.460938 664.03125 -204.953125 C 665.039062 -201.929688 662.769531 -200.164062 657.21875 -199.65625 C 655.707031 -199.65625 654.703125 -199.65625 654.203125 -199.65625 C 656.210938 -196.132812 658.097656 -194.625 659.859375 -195.125 C 661.628906 -195.625 663.523438 -196.378906 665.546875 -197.390625 C 668.566406 -199.910156 670.832031 -200.664062 672.34375 -199.65625 C 683.945312 -197.644531 693.78125 -193.359375 701.84375 -186.796875 C 709.90625 -180.242188 719.738281 -175.707031 731.34375 -173.1875 Z M 605.796875 -95.296875 C 607.804688 -91.765625 608.304688 -88.613281 607.296875 -85.84375 C 606.296875 -83.070312 605.039062 -80.425781 603.53125 -77.90625 C 587.894531 -77.90625 576.171875 -74.25 568.359375 -66.9375 C 560.546875 -59.625 554.617188 -50.421875 550.578125 -39.328125 C 546.546875 -28.234375 543.773438 -16.632812 542.265625 -4.53125 C 540.753906 7.5625 538.609375 18.144531 535.828125 27.21875 C 533.054688 36.300781 528.144531 42.101562 521.09375 44.625 C 514.53125 46.632812 508.851562 47.132812 504.0625 46.125 C 499.28125 45.125 494.875 43.867188 490.84375 42.359375 C 488.320312 41.347656 485.925781 40.460938 483.65625 39.703125 C 481.382812 38.953125 478.988281 38.320312 476.46875 37.8125 C 461.84375 36.300781 444.066406 36.050781 423.140625 37.0625 C 402.222656 38.070312 380.671875 39.707031 358.484375 41.96875 C 336.296875 44.238281 315.875 46.757812 297.21875 49.53125 C 278.5625 52.3125 264.445312 54.960938 254.875 57.484375 C 249.320312 57.984375 244.53125 56.59375 240.5 53.3125 C 236.46875 50.039062 232.4375 46.132812 228.40625 41.59375 C 225.882812 39.070312 223.863281 37.054688 222.34375 35.546875 C 216.800781 30.003906 213.773438 22.816406 213.265625 13.984375 C 212.765625 5.160156 213.019531 -4.789062 214.03125 -15.875 C 214.53125 -25.457031 214.78125 -35.664062 214.78125 -46.5 C 214.78125 -57.34375 213.019531 -68.3125 209.5 -79.40625 C 200.414062 -81.925781 193.601562 -86.335938 189.0625 -92.640625 C 184.53125 -98.941406 178.734375 -104.363281 171.671875 -108.90625 C 177.222656 -117.476562 186.046875 -123.023438 198.140625 -125.546875 C 210.242188 -128.066406 224.113281 -129.832031 239.75 -130.84375 C 262.4375 -132.351562 288.273438 -133.738281 317.265625 -135 C 346.253906 -136.257812 374.863281 -137.894531 403.09375 -139.90625 C 431.332031 -141.925781 455.285156 -144.703125 474.953125 -148.234375 C 492.597656 -151.765625 509.863281 -150.878906 526.75 -145.578125 C 543.644531 -140.285156 559.023438 -132.972656 572.890625 -123.640625 C 586.753906 -114.316406 597.722656 -104.867188 605.796875 -95.296875 Z M 475.703125 -2.265625 C 475.703125 -7.816406 475.828125 -13.363281 476.078125 -18.90625 C 476.335938 -24.457031 476.972656 -30.253906 477.984375 -36.296875 C 478.992188 -47.898438 479.625 -59.5 479.875 -71.09375 C 480.125 -82.6875 477.976562 -93.273438 473.4375 -102.859375 C 440.664062 -104.367188 409.785156 -103.738281 380.796875 -100.96875 C 351.804688 -98.195312 321.175781 -94.789062 288.90625 -90.75 C 286.382812 -90.25 283.734375 -89.875 280.953125 -89.625 C 278.179688 -89.375 275.535156 -88.992188 273.015625 -88.484375 C 273.015625 -85.460938 273.015625 -82.1875 273.015625 -78.65625 C 273.015625 -75.125 273.015625 -71.085938 273.015625 -66.546875 C 273.015625 -55.960938 273.140625 -44.492188 273.390625 -32.140625 C 273.648438 -19.785156 274.785156 -9.320312 276.796875 -0.75 C 293.941406 0.757812 311.585938 1.257812 329.734375 0.75 C 347.890625 0.25 365.789062 -0.503906 383.4375 -1.515625 C 399.570312 -2.523438 415.453125 -3.28125 431.078125 -3.78125 C 446.710938 -4.28125 461.585938 -3.773438 475.703125 -2.265625 Z M 475.703125 -2.265625 "/></g></g></g></g></g></svg>