<svg xmlns="http://www.w3.org/2000/svg" xmlns:xlink="http://www.w3.org/1999/xlink" width="2000" zoomAndPan="magnify" viewBox="0 0 1500 1499.999933" height="2000" preserveAspectRatio="xMidYMid meet" version="1.0"><defs><g/><clipPath id="86e7f066c1"><path d="M 750 0 C 335.785156 0 0 335.785156 0 750 C 0 1164.214844 335.785156 1500 750 1500 C 1164.214844 1500 1500 1164.214844 1500 750 C 1500 335.785156 1164.214844 0 750 0 Z M 750 0 " clip-rule="nonzero"/></clipPath><clipPath id="d5f7667bb5"><path d="M 0 0 L 1500 0 L 1500 1500 L 0 1500 Z M 0 0 " clip-rule="nonzero"/></clipPath><clipPath id="fcfcbfad9e"><path d="M 750 0 C 335.785156 0 0 335.785156 0 750 C 0 1164.214844 335.785156 1500 750 1500 C 1164.214844 1500 1500 1164.214844 1500 750 C 1500 335.785156 1164.214844 0 750 0 Z M 750 0 " clip-rule="nonzero"/></clipPath><clipPath id="291a5e828f"><rect x="0" width="1500" y="0" height="1500"/></clipPath><clipPath id="084f78d6b1"><rect x="0" width="1135" y="0" height="1500"/></clipPath></defs><g clip-path="url(#86e7f066c1)"><g transform="matrix(1, 0, 0, 1, 0, 0.000000000000112861)"><g clip-path="url(#291a5e828f)"><g clip-path="url(#d5f7667bb5)"><g clip-path="url(#fcfcbfad9e)"><rect x="-330" width="2160" fill="#032d66" height="2159.999904" y="-329.999985" fill-opacity="1"/></g></g></g></g></g><g transform="matrix(1, 0, 0, 1, 183, 0.000000000000112861)"><g clip-path="url(#084f78d6b1)"><g fill="#eb6614" fill-opacity="1"><g transform="translate(0.907518, 1243.92328)"><g><path d="M 1094.828125 -15.84375 C 1095.578125 -10.5625 1095.007812 -5.84375 1093.125 -1.6875 C 1091.238281 2.457031 1088.785156 6.414062 1085.765625 10.1875 C 1083.503906 13.207031 1081.238281 16.414062 1078.96875 19.8125 C 1076.707031 23.207031 1075.203125 27.546875 1074.453125 32.828125 C 1069.921875 29.054688 1066.707031 28.113281 1064.8125 30 C 1062.925781 31.882812 1061.609375 34.335938 1060.859375 37.359375 C 1059.347656 41.128906 1057.835938 43.394531 1056.328125 44.15625 C 1031.421875 58.5 1006.890625 62.082031 982.734375 54.90625 C 958.585938 47.738281 935.566406 39.25 913.671875 29.4375 C 904.617188 24.90625 895.941406 20.941406 887.640625 17.546875 C 879.335938 14.148438 871.410156 11.320312 863.859375 9.0625 C 849.515625 -20.375 832.34375 -46.789062 812.34375 -70.1875 C 792.34375 -93.59375 772.53125 -119.257812 752.90625 -147.1875 C 748.375 -147.1875 744.972656 -145.488281 742.703125 -142.09375 C 740.441406 -138.695312 738.179688 -135.488281 735.921875 -132.46875 C 732.898438 -127.1875 729.878906 -123.410156 726.859375 -121.140625 C 723.835938 -118.878906 718.929688 -121.898438 712.140625 -130.203125 C 708.367188 -126.429688 706.296875 -122.84375 705.921875 -119.4375 C 705.546875 -116.039062 705.359375 -112.457031 705.359375 -108.6875 C 705.359375 -106.425781 705.359375 -104.160156 705.359375 -101.890625 C 705.359375 -99.628906 704.976562 -96.988281 704.21875 -93.96875 C 685.351562 -76.613281 663.085938 -58.6875 637.421875 -40.1875 C 611.753906 -21.695312 584.203125 -5.472656 554.765625 8.484375 C 525.328125 22.453125 494.945312 31.132812 463.625 34.53125 C 432.300781 37.925781 401.164062 32.832031 370.21875 19.25 C 439.664062 1.882812 501.179688 -28.679688 554.765625 -72.453125 C 608.359375 -116.234375 654.78125 -165.675781 694.03125 -220.78125 C 684.21875 -244.925781 671.570312 -268.132812 656.09375 -290.40625 C 640.625 -312.675781 625.34375 -335.695312 610.25 -359.46875 C 595.15625 -383.25 582.320312 -408.722656 571.75 -435.890625 C 567.226562 -433.628906 562.703125 -430.609375 558.171875 -426.828125 C 553.640625 -423.054688 549.109375 -419.285156 544.578125 -415.515625 C 534.015625 -406.453125 522.882812 -398.523438 511.1875 -391.734375 C 499.488281 -384.941406 484.957031 -385.695312 467.59375 -394 C 492.5 -425.695312 514.765625 -460.035156 534.390625 -497.015625 C 554.015625 -534.003906 568.734375 -576.65625 578.546875 -624.96875 C 577.796875 -626.476562 575.910156 -629.117188 572.890625 -632.890625 C 570.617188 -636.660156 568.351562 -640.429688 566.09375 -644.203125 C 563.832031 -647.984375 563.078125 -652.140625 563.828125 -656.671875 C 568.359375 -655.910156 572.132812 -655.90625 575.15625 -656.65625 C 578.175781 -657.414062 580.816406 -658.175781 583.078125 -658.9375 C 585.335938 -660.445312 587.222656 -661.203125 588.734375 -661.203125 C 590.242188 -669.503906 592.316406 -677.804688 594.953125 -686.109375 C 597.597656 -694.410156 600.054688 -702.710938 602.328125 -711.015625 C 607.609375 -725.359375 611.945312 -739.695312 615.34375 -754.03125 C 618.738281 -768.375 618.925781 -782.71875 615.90625 -797.0625 C 612.882812 -810.644531 606.65625 -821.019531 597.21875 -828.1875 C 587.789062 -835.363281 578.546875 -842.722656 569.484375 -850.265625 C 560.429688 -857.816406 554.769531 -868.382812 552.5 -881.96875 C 557.789062 -881.21875 561.566406 -881.785156 563.828125 -883.671875 C 566.085938 -885.554688 568.351562 -888.007812 570.625 -891.03125 C 572.882812 -895.5625 575.148438 -898.203125 577.421875 -898.953125 C 600.054688 -889.898438 623.640625 -881.597656 648.171875 -874.046875 C 672.703125 -866.503906 691.765625 -852.921875 705.359375 -833.296875 C 711.390625 -814.421875 712.328125 -796.488281 708.171875 -779.5 C 704.023438 -762.519531 698.554688 -744.972656 691.765625 -726.859375 C 689.503906 -718.554688 686.863281 -710.253906 683.84375 -701.953125 C 680.820312 -693.648438 678.179688 -684.972656 675.921875 -675.921875 C 699.316406 -672.140625 721.582031 -671.757812 742.71875 -674.78125 C 763.851562 -677.800781 784.988281 -681.195312 806.125 -684.96875 C 819.707031 -687.988281 833.289062 -690.628906 846.875 -692.890625 C 860.457031 -695.160156 874.800781 -696.671875 889.90625 -697.421875 C 895.9375 -706.484375 905.367188 -711.390625 918.203125 -712.140625 C 931.035156 -712.898438 945.1875 -711.203125 960.65625 -707.046875 C 976.132812 -702.898438 991.421875 -698.1875 1006.515625 -692.90625 C 1011.796875 -691.394531 1016.890625 -689.882812 1021.796875 -688.375 C 1026.703125 -686.863281 1031.421875 -685.351562 1035.953125 -683.84375 C 1038.972656 -676.289062 1042.742188 -669.875 1047.265625 -664.59375 C 1051.796875 -659.3125 1054.441406 -652.519531 1055.203125 -644.21875 C 1049.160156 -641.195312 1041.988281 -639.117188 1033.6875 -637.984375 C 1025.382812 -636.859375 1019.347656 -633.273438 1015.578125 -627.234375 C 947.640625 -625.722656 883.476562 -621.945312 823.09375 -615.90625 C 762.71875 -609.875 709.128906 -604.210938 662.328125 -598.921875 C 651.765625 -584.585938 642.894531 -568.738281 635.71875 -551.375 C 628.550781 -534.007812 621.191406 -517.023438 613.640625 -500.421875 C 606.097656 -483.816406 596.285156 -469.097656 584.203125 -456.265625 C 613.640625 -435.140625 639.679688 -411.175781 662.328125 -384.375 C 684.972656 -357.582031 708.75 -330.976562 733.65625 -304.5625 C 744.226562 -324.9375 753.664062 -348.332031 761.96875 -374.75 C 770.269531 -401.164062 775.550781 -428.523438 777.8125 -456.828125 C 780.070312 -485.140625 777.804688 -511.5625 771.015625 -536.09375 C 764.222656 -560.625 751.015625 -580.8125 731.390625 -596.65625 C 759.316406 -602.695312 786.300781 -597.976562 812.34375 -582.5 C 838.382812 -567.03125 858.578125 -546.46875 872.921875 -520.8125 C 870.648438 -480.800781 864.226562 -444.566406 853.65625 -412.109375 C 843.09375 -379.660156 831.960938 -350.222656 820.265625 -323.796875 C 808.566406 -297.378906 798.945312 -273.226562 791.40625 -251.34375 C 801.21875 -245.300781 809.894531 -237.375 817.4375 -227.5625 C 824.988281 -217.75 832.535156 -208.691406 840.078125 -200.390625 C 852.910156 -199.640625 862.722656 -194.546875 869.515625 -185.109375 C 876.304688 -175.671875 884.609375 -167.9375 894.421875 -161.90625 C 910.273438 -152.84375 927.070312 -145.671875 944.8125 -140.390625 C 962.550781 -135.109375 979.15625 -128.503906 994.625 -120.578125 C 1010.101562 -112.648438 1021.613281 -99.628906 1029.15625 -81.515625 C 1048.03125 -77.742188 1061.992188 -68.875 1071.046875 -54.90625 C 1080.109375 -40.945312 1088.035156 -27.925781 1094.828125 -15.84375 Z M 566.09375 -731.390625 C 554.019531 -726.859375 543.453125 -724.40625 534.390625 -724.03125 C 525.335938 -723.65625 515.90625 -719.316406 506.09375 -711.015625 C 498.539062 -668.742188 490.988281 -626.285156 483.4375 -583.640625 C 475.894531 -540.992188 464.195312 -502.6875 448.34375 -468.71875 C 415.132812 -463.4375 381.734375 -457.398438 348.140625 -450.609375 C 314.554688 -443.816406 285.6875 -436.644531 261.53125 -429.09375 C 257.757812 -378.53125 254.363281 -324.753906 251.34375 -267.765625 C 248.320312 -210.773438 243.796875 -159.257812 237.765625 -113.21875 C 270.972656 -132.84375 307.203125 -155.863281 346.453125 -182.28125 C 385.703125 -208.695312 419.664062 -238.890625 448.34375 -272.859375 C 458.914062 -271.347656 465.144531 -268.703125 467.03125 -264.921875 C 468.914062 -261.148438 469.859375 -256.625 469.859375 -251.34375 C 469.097656 -247.570312 469.09375 -243.421875 469.84375 -238.890625 C 470.601562 -234.359375 473.25 -229.453125 477.78125 -224.171875 C 472.5 -210.585938 467.40625 -200.398438 462.5 -193.609375 C 457.59375 -186.816406 453.253906 -175.492188 449.484375 -159.640625 C 417.023438 -135.484375 385.507812 -110.195312 354.9375 -83.78125 C 324.375 -57.363281 288.332031 -36.609375 246.8125 -21.515625 C 241.53125 -19.242188 238.320312 -14.710938 237.1875 -7.921875 C 236.0625 -1.128906 233.234375 3.773438 228.703125 6.796875 C 201.523438 11.328125 177.554688 5.476562 156.796875 -10.75 C 136.046875 -26.976562 116.613281 -44.53125 98.5 -63.40625 C 93.96875 -68.6875 89.25 -73.78125 84.34375 -78.6875 C 79.4375 -83.59375 74.34375 -88.3125 69.0625 -92.84375 C 78.875 -100.382812 89.441406 -103.773438 100.765625 -103.015625 C 112.085938 -102.265625 123.03125 -100.757812 133.59375 -98.5 C 139.632812 -96.988281 145.484375 -95.664062 151.140625 -94.53125 C 156.804688 -93.40625 161.90625 -93.597656 166.4375 -95.109375 C 173.226562 -141.898438 177.1875 -195.488281 178.3125 -255.875 C 179.445312 -316.257812 175.863281 -373.242188 167.5625 -426.828125 C 157 -438.148438 146.054688 -449.285156 134.734375 -460.234375 C 123.410156 -471.179688 114.351562 -484.578125 107.5625 -500.421875 C 107.5625 -501.179688 111.519531 -503.445312 119.4375 -507.21875 C 127.363281 -510.988281 132.082031 -514.382812 133.59375 -517.40625 C 140.382812 -515.144531 146.988281 -514.015625 153.40625 -514.015625 C 159.820312 -514.015625 166.050781 -514.390625 172.09375 -515.140625 C 181.144531 -515.140625 190.007812 -514.757812 198.6875 -514 C 207.375 -513.25 215.492188 -509.476562 223.046875 -502.6875 C 238.140625 -503.445312 255.875 -505.523438 276.25 -508.921875 C 296.632812 -512.316406 317.203125 -516.273438 337.953125 -520.796875 C 358.710938 -525.328125 377.019531 -529.859375 392.875 -534.390625 C 393.625 -537.410156 394.1875 -540.617188 394.5625 -544.015625 C 394.945312 -547.410156 395.515625 -550.992188 396.265625 -554.765625 C 400.796875 -581.941406 404.945312 -609.867188 408.71875 -638.546875 C 412.488281 -667.234375 413.617188 -698.5625 412.109375 -732.53125 C 386.453125 -731.019531 357.960938 -727.8125 326.640625 -722.90625 C 295.316406 -718 265.691406 -711.015625 237.765625 -701.953125 C 233.984375 -701.203125 230.582031 -699.691406 227.5625 -697.421875 C 224.550781 -695.160156 221.535156 -692.898438 218.515625 -690.640625 C 212.472656 -685.347656 205.863281 -681.003906 198.6875 -677.609375 C 191.519531 -674.210938 182.273438 -675.15625 170.953125 -680.4375 C 161.898438 -684.96875 151.710938 -693.269531 140.390625 -705.34375 C 129.066406 -717.425781 118.5 -730.632812 108.6875 -744.96875 C 98.875 -759.3125 90.953125 -771.390625 84.921875 -781.203125 C 87.179688 -781.960938 88.3125 -785.363281 88.3125 -791.40625 C 88.3125 -792.15625 88.3125 -792.90625 88.3125 -793.65625 C 101.894531 -801.207031 115.289062 -803.285156 128.5 -799.890625 C 141.707031 -796.492188 154.351562 -792.53125 166.4375 -788 C 169.445312 -786.488281 172.835938 -784.976562 176.609375 -783.46875 C 180.390625 -781.957031 183.789062 -780.828125 186.8125 -780.078125 C 238.894531 -782.335938 286.066406 -788.5625 328.328125 -798.75 C 370.597656 -808.945312 404.566406 -822.722656 430.234375 -840.078125 C 449.097656 -831.773438 467.960938 -823.847656 486.828125 -816.296875 C 505.703125 -808.753906 522.5 -798.753906 537.21875 -786.296875 C 551.9375 -773.847656 561.5625 -755.546875 566.09375 -731.390625 Z M 566.09375 -731.390625 "/></g></g></g></g></g></svg>